<?xml version="1.0" encoding="UTF-8" standalone="no"?>
<!-- Created with Inkscape (http://www.inkscape.org/) -->

<svg
   width="8.5in"
   height="11in"
   viewBox="0 0 816 1056"
   version="1.1"
   id="svg5"
   inkscape:version="1.2.2 (732a01da63, 2022-12-09)"
   sodipodi:docname="lise-mini-face.svg"
   xmlns:inkscape="http://www.inkscape.org/namespaces/inkscape"
   xmlns:sodipodi="http://sodipodi.sourceforge.net/DTD/sodipodi-0.dtd"
   xmlns:xlink="http://www.w3.org/1999/xlink"
   xmlns="http://www.w3.org/2000/svg"
   xmlns:svg="http://www.w3.org/2000/svg">
  <sodipodi:namedview
     id="namedview7"
     pagecolor="#ffffff"
     bordercolor="#666666"
     borderopacity="1.0"
     inkscape:pageshadow="2"
     inkscape:pageopacity="0.0"
     inkscape:pagecheckerboard="0"
     inkscape:document-units="mm"
     showgrid="false"
     units="in"
     inkscape:snap-smooth-nodes="false"
     inkscape:snap-midpoints="true"
     showguides="false"
     inkscape:guide-bbox="true"
     inkscape:snap-bbox="true"
     inkscape:bbox-nodes="true"
     inkscape:snap-page="true"
     inkscape:zoom="3.0757578"
     inkscape:cx="134.43841"
     inkscape:cy="109.40393"
     inkscape:window-width="1920"
     inkscape:window-height="1001"
     inkscape:window-x="-9"
     inkscape:window-y="-9"
     inkscape:window-maximized="1"
     inkscape:current-layer="layer6"
     inkscape:object-paths="false"
     inkscape:snap-center="true"
     inkscape:snap-bbox-midpoints="true"
     inkscape:snap-intersection-paths="false"
     inkscape:showpageshadow="2"
     inkscape:deskcolor="#d1d1d1">
    <inkscape:grid
       type="xygrid"
       id="grid15711"
       empspacing="10"
       units="mm"
       spacingx="3.7795276"
       spacingy="3.7795276" />
    <sodipodi:guide
       position="259.37008,797.88976"
       orientation="1,0"
       id="guide22727"
       inkscape:locked="false" />
    <sodipodi:guide
       position="259.37008,797.88976"
       orientation="0,-1"
       id="guide22729"
       inkscape:locked="false" />
    <sodipodi:guide
       position="279.37009,777.88976"
       orientation="0,-1"
       id="guide23322"
       inkscape:locked="false" />
  </sodipodi:namedview>
  <defs
     id="defs2" />
  <g
     inkscape:groupmode="layer"
     id="layer2"
     inkscape:label="bg"
     style="display:inline">
    <rect
       style="display:inline;fill:#000000;stroke-width:0.999999"
       id="rect846"
       width="47.622047"
       height="47.622047"
       x="40"
       y="40"
       rx="11.338583" />
    <rect
       style="display:inline;fill:#000000;stroke-width:0.999999"
       id="rect16447"
       width="47.622047"
       height="47.622047"
       x="93.622055"
       y="40"
       rx="11.338583" />
    <rect
       style="display:inline;fill:#000000;stroke-width:0.999999"
       id="rect16449"
       width="47.622047"
       height="47.622047"
       x="147.24408"
       y="40"
       rx="11.338583" />
    <rect
       style="display:inline;fill:#000000;stroke-width:0.999999"
       id="rect963"
       width="47.622047"
       height="47.622047"
       x="200.86613"
       y="40"
       rx="11.338583" />
    <rect
       style="display:inline;fill:#000000;stroke-width:0.999999"
       id="rect6884"
       width="47.622047"
       height="47.622047"
       x="40"
       y="93.622055"
       rx="11.338583" />
    <rect
       style="display:inline;fill:#000000;stroke-width:0.999999"
       id="rect22659"
       width="47.622047"
       height="47.622047"
       x="93.999985"
       y="93.622055"
       rx="11.338583" />
    <rect
       style="display:inline;fill:#000000;stroke-width:0.999999"
       id="rect21794"
       width="47.622047"
       height="47.622047"
       x="147.99997"
       y="93.622055"
       rx="11.338583" />
    <rect
       style="display:inline;fill:#000000;stroke-width:0.999999"
       id="rect22182"
       width="47.622047"
       height="47.622047"
       x="201.99998"
       y="93.622055"
       rx="11.338583" />
    <rect
       style="display:inline;fill:#000000;stroke-width:0.999999"
       id="rect21543"
       width="47.622047"
       height="47.622047"
       x="40"
       y="147.62207"
       rx="11.338583" />
  </g>
  <g
     inkscape:groupmode="layer"
     id="layer3"
     inkscape:label="green"
     style="display:inline">
    <path
       id="rect984"
       style="fill:#b7fc68;fill-opacity:1;stroke-width:0.999999"
       d="m 54.409653,58.141772 c -1.25632,0 -2.26758,1.01127 -2.26758,2.26758 v 1.13379 h -1.13438 c -0.62815,0 -1.13379,0.50563 -1.13379,1.13379 0,0.62816 0.50564,1.13437 1.13379,1.13437 h 1.13438 v 3.40137 c 0,1.25632 1.01126,2.26758 2.26758,2.26758 h 1.13379 c 1.25631,0 2.26757,-1.01126 2.26757,-2.26758 v -4.53574 -2.26758 c 0,-1.25631 -1.01126,-2.26758 -2.26757,-2.26758 z" />
    <use
       x="0"
       y="0"
       xlink:href="#rect984"
       id="use10933"
       transform="matrix(-1,0,0,1,127.62202,2e-6)"
       width="100%"
       height="100%"
       style="stroke-width:3.33333" />
    <path
       style="color:#000000;fill:#b7fc68;stroke-width:0.999999;stroke-linecap:round;-inkscape-stroke:none"
       d="m 58.377923,72.895702 a 1.133859,1.133859 0 0 0 -0.94219,1.29786 c 0.23782,1.49795 1.20697,2.65417 2.38946,3.35038 1.18248,0.69622 2.5866,1.00723 3.98554,1.00723 1.39894,0 2.80365,-0.31101 3.98613,-1.00723 1.18249,-0.69621 2.15164,-1.85243 2.38946,-3.35038 a 1.133859,1.133859 0 0 0 -0.94219,-1.29786 1.133859,1.133859 0 0 0 -1.29727,0.94219 c -0.1222,0.76976 -0.55746,1.31431 -1.30078,1.75195 -0.74331,0.43765 -1.78656,0.69375 -2.83535,0.69375 -1.04878,0 -2.09203,-0.2561 -2.83535,-0.69375 -0.74332,-0.43764 -1.17799,-0.98219 -1.30019,-1.75195 a 1.133859,1.133859 0 0 0 -1.29727,-0.94219 z"
       id="path10970" />
  </g>
  <g
     inkscape:groupmode="layer"
     id="layer1"
     inkscape:label="red"
     style="display:inline">
    <path
       id="path16526"
       style="color:#000000;fill:#ff4a4a;stroke-width:0.999999;-inkscape-stroke:none"
       d="m 107.41093,49.780472 -4.0084,4.0084 10.02246,10.02246 -10.02246,10.02187 4.0084,4.0084 10.02187,-10.02246 10.02246,10.02246 4.0084,-4.0084 -10.02187,-10.02187 10.02187,-10.02246 -4.0084,-4.0084 -10.02246,10.02187 z" />
    <path
       id="path1417"
       style="color:#000000;display:inline;fill:#ff4a4a;stroke-width:18.8976;stroke-linecap:round;stroke-linejoin:round;-inkscape-stroke:none"
       d="m 170.85741,50.567972 a 2.8349234,2.8349234 0 0 0 -0.77168,0.16406 2.8349234,2.8349234 0 0 0 -1.48535,1.24629 l -12.02637,20.83066 a 2.8349234,2.8349234 0 0 0 2.4545,4.25157 h 24.05273 a 2.8349234,2.8349234 0 0 0 2.45508,-4.25157 l -12.02637,-20.83066 a 2.8349234,2.8349234 0 0 0 -2.65254,-1.41035 z m 0.19746,4.26504 c 0.64378,0 1.28349,0.30834 1.69981,0.79922 0.471,0.54535 0.64043,1.26666 0.64043,2.05547 0,0.27444 -0.0252,0.59172 -0.0709,0.97675 l -6e-4,0.007 -1.17246,10.65761 -0.0838,0.75762 h -2.02559 l -1.24219,-11.44688 c -0.0541,-0.47829 -0.0844,-0.80553 -0.0844,-1.07109 0,-0.72848 0.19108,-1.42099 0.64336,-1.9418 0.42109,-0.48489 1.05402,-0.79394 1.69629,-0.79394 z m -0.0129,15.74121 c 0.59893,0 1.19804,0.24482 1.62305,0.6668 0.43382,0.42285 0.69082,1.02837 0.69082,1.63417 0,0.60766 -0.25463,1.21265 -0.68437,1.64239 -0.42532,0.42531 -1.02801,0.67148 -1.6295,0.67148 -0.59708,0 -1.19139,-0.24638 -1.62011,-0.66211 l -0.009,-0.009 -0.009,-0.009 c -0.41872,-0.4318 -0.66153,-1.0321 -0.66153,-1.63359 0,-0.60149 0.24558,-1.20477 0.6709,-1.63008 l 0.005,-0.004 0.005,-0.005 c 0.42873,-0.41573 1.02304,-0.66211 1.62012,-0.66211 z" />
  </g>
  <g
     inkscape:groupmode="layer"
     id="layer6"
     inkscape:label="firework">
    <path
       id="path25002"
       style="color:#000000;display:inline;fill:#ff00ff;stroke-width:0.999999;stroke-linecap:round;-inkscape-stroke:none"
       d="m 53.775973,108.9291 c -1.39894,0 -2.80307,0.31101 -3.98555,1.00723 -1.18248,0.69621 -2.15164,1.85243 -2.38945,3.35039 a 1.133859,1.133859 0 0 0 0.94218,1.29785 1.133859,1.133859 0 0 0 1.29727,-0.94219 c 0.12221,-0.76975 0.55688,-1.31431 1.30019,-1.75195 0.74332,-0.43765 1.78657,-0.69375 2.83536,-0.69375 1.04878,0 2.09203,0.2561 2.83535,0.69375 0.74332,0.43764 1.17857,0.9822 1.30078,1.75195 a 1.133859,1.133859 0 0 0 1.29726,0.94219 1.133859,1.133859 0 0 0 0.94219,-1.29785 c -0.23781,-1.49796 -1.20697,-2.65418 -2.38945,-3.35039 -1.18248,-0.69622 -2.58719,-1.00723 -3.98613,-1.00723 z m 20.06894,0 c -1.39894,0 -2.80306,0.31101 -3.98555,1.00723 -1.18248,0.69621 -2.15163,1.85243 -2.38945,3.35039 a 1.133859,1.133859 0 0 0 0.94219,1.29785 1.133859,1.133859 0 0 0 1.29726,-0.94219 c 0.12221,-0.76975 0.55688,-1.31431 1.3002,-1.75195 0.74331,-0.43765 1.78657,-0.69375 2.83535,-0.69375 1.04879,0 2.09204,0.2561 2.83535,0.69375 0.74332,0.43764 1.17858,0.9822 1.30079,1.75195 a 1.133859,1.133859 0 0 0 1.29726,0.94219 1.133859,1.133859 0 0 0 0.94219,-1.29785 c -0.23782,-1.49796 -1.20697,-2.65418 -2.38945,-3.35039 -1.18248,-0.69622 -2.5872,-1.00723 -3.98614,-1.00723 z m -16.89726,10.68516 v 2.42343 c 0,0.88087 0.0857,1.58985 0.25781,2.12696 0.17208,0.5414 0.45188,1.03125 0.83906,1.46953 0.55927,0.63164 1.34669,1.13652 2.36074,1.51465 1.01406,0.38242 2.1444,0.57363 3.392,0.57363 1.33363,0 2.48599,-0.18262 3.45703,-0.54785 0.97103,-0.36524 1.74818,-0.87442 2.33203,-1.52754 0.33802,-0.38242 0.60225,-0.85078 0.79277,-1.40508 0.19667,-0.55 0.29531,-1.29336 0.29531,-2.23007 v -2.39766 z m 2.04902,1.52871 h 9.6293 v 1.08984 c 0,0.53906 -0.0564,1.00196 -0.16817,1.38867 -0.10615,0.38672 -0.29838,0.75196 -0.57773,1.09571 -0.38551,0.47266 -0.91393,0.82812 -1.58438,1.0664 -0.67044,0.23828 -1.49433,0.35743 -2.47207,0.35743 -0.97215,0 -1.78237,-0.10938 -2.43047,-0.32813 -0.6481,-0.21484 -1.1707,-0.53906 -1.56738,-0.97266 -0.31846,-0.34765 -0.53599,-0.73046 -0.65332,-1.14843 -0.11733,-0.41407 -0.17578,-0.90039 -0.17578,-1.45899 z" />
    <path
       id="path22242"
       style="display:inline;fill:#ff00ff;stroke-width:2.5;stroke-linejoin:round"
       inkscape:transform-center-y="-11.400003"
       d="m 225.81073,103.63281 c -0.99411,0 -1.8,0.80589 -1.8,1.8 0,0.99412 0.80589,3 1.8,3 0.99412,0 1.8,-2.00589 1.8,-3 0,-0.99411 -0.80588,-1.8 -1.8,-1.8 z m -8.48496,3.51504 c -0.46066,0 -0.92118,0.17587 -1.27266,0.52734 -0.70294,0.70295 -0.70294,1.84238 0,2.54532 0.70295,0.70294 2.69081,1.55138 3.39376,0.84843 0.70294,-0.70294 -0.1455,-2.6908 -0.84844,-3.39375 -0.35147,-0.35147 -0.812,-0.52734 -1.27266,-0.52734 z m 16.97051,0 c -0.46066,0 -0.92119,0.17587 -1.27266,0.52734 -0.70294,0.70295 -1.55138,2.69081 -0.84844,3.39375 0.70295,0.70295 2.69081,-0.14549 3.39375,-0.84843 0.70295,-0.70294 0.70295,-1.84237 0,-2.54532 -0.35147,-0.35147 -0.81199,-0.52734 -1.27265,-0.52734 z m -20.48555,8.48496 c -0.99411,0 -1.8,0.80589 -1.8,1.8 0,0.99412 0.80589,1.8 1.8,1.8 0.99412,0 3,-0.80588 3,-1.8 0,-0.99411 -2.00588,-1.8 -3,-1.8 z m 24,0 c -0.99411,0 -3,0.80589 -3,1.8 0,0.99412 2.00589,1.8 3,1.8 0.99412,0 1.8,-0.80588 1.8,-1.8 0,-0.99411 -0.80588,-1.8 -1.8,-1.8 z m -19.20468,7.90137 c -0.87873,0.0255 -2.04769,0.60628 -2.55294,1.11152 -0.70294,0.70294 -0.70294,1.84237 0,2.54532 0.70295,0.70294 1.84238,0.70294 2.54532,0 0.70294,-0.70295 1.55138,-2.69081 0.84844,-3.39375 -0.19771,-0.19771 -0.49698,-0.27308 -0.84082,-0.26309 z m 14.29687,0 c -0.29623,0.008 -0.552,0.0873 -0.72774,0.26309 -0.70294,0.70294 0.1455,2.6908 0.84844,3.39375 0.70294,0.70294 1.84237,0.70294 2.54531,0 0.70295,-0.70295 0.70295,-1.84238 0,-2.54532 -0.5272,-0.52721 -1.77732,-1.13648 -2.66601,-1.11152 z m -7.09219,2.89863 c -0.99411,0 -1.8,2.00589 -1.8,3 0,0.99412 0.80589,1.8 1.8,1.8 0.99412,0 1.8,-0.80588 1.8,-1.8 0,-0.99411 -0.80588,-3 -1.8,-3 z"
       inkscape:transform-center-x="-2.6716309e-06" />
    <path
       id="circle21712"
       style="display:inline;fill:#800080;stroke:none;stroke-width:2.5;stroke-linecap:butt;stroke-linejoin:round;stroke-miterlimit:4;stroke-dasharray:none"
       inkscape:transform-center-x="-12.000003"
       inkscape:transform-center-y="-3.2973144e-06"
       d="m 63.811323,159.43281 a 1.8,1.8 0 0 0 -1.8,1.8 1.8,1.8 0 0 0 1.8,1.8 1.8,1.8 0 0 0 1.8,-1.8 1.8,1.8 0 0 0 -1.8,-1.8 z m -8.61387,3.51973 a 1.8,1.8 0 0 0 -1.14434,0.52265 1.8,1.8 0 0 0 0,2.54532 1.8,1.8 0 0 0 2.54532,0 1.8,1.8 0 0 0 0,-2.54532 1.8,1.8 0 0 0 -1.40098,-0.52265 z m 16.97051,0 a 1.8,1.8 0 0 0 -1.14434,0.52265 1.8,1.8 0 0 0 0,2.54532 1.8,1.8 0 0 0 2.54531,0 1.8,1.8 0 0 0 0,-2.54532 1.8,1.8 0 0 0 -1.40097,-0.52265 z m -20.35723,8.48027 a 1.8,1.8 0 0 0 -1.8,1.8 1.8,1.8 0 0 0 1.8,1.8 1.8,1.8 0 0 0 1.8,-1.8 1.8,1.8 0 0 0 -1.8,-1.8 z m 24,0 a 1.8,1.8 0 0 0 -1.8,1.8 1.8,1.8 0 0 0 1.8,1.8 1.8,1.8 0 0 0 1.8,-1.8 1.8,1.8 0 0 0 -1.8,-1.8 z m -20.61328,8.49024 a 1.8,1.8 0 0 0 -1.14434,0.52265 1.8,1.8 0 0 0 0,2.54532 1.8,1.8 0 0 0 2.54532,0 1.8,1.8 0 0 0 0,-2.54532 1.8,1.8 0 0 0 -1.40098,-0.52265 z m 16.97051,0 a 1.8,1.8 0 0 0 -1.14434,0.52265 1.8,1.8 0 0 0 0,2.54532 1.8,1.8 0 0 0 2.54531,0 1.8,1.8 0 0 0 0,-2.54532 1.8,1.8 0 0 0 -1.40097,-0.52265 z m -8.35723,3.50976 a 1.8,1.8 0 0 0 -1.8,1.8 1.8,1.8 0 0 0 1.8,1.8 1.8,1.8 0 0 0 1.8,-1.8 1.8,1.8 0 0 0 -1.8,-1.8 z" />
  </g>
  <g
     inkscape:groupmode="layer"
     id="layer4"
     inkscape:label="yellow"
     style="display:inline">
    <g
       id="g973"
       transform="matrix(0.3,0,0,0.3,41.895203,37.655252)"
       style="stroke-width:3.33333">
      <g
         id="g967"
         style="stroke-width:3.33333">
        <path
           style="color:#000000;display:inline;fill:#ffff00;stroke:none;stroke-width:25.1969;stroke-linecap:round;stroke-linejoin:round;stroke-miterlimit:4;stroke-dasharray:none"
           d="m 609.2292,109.73055 c 1.99643,0 3.99347,0.81606 5.41016,2.22266 1.44607,1.4095 2.30273,3.42792 2.30273,5.44726 0,2.02551 -0.84878,4.04215 -2.28125,5.47461 -1.41772,1.41772 -3.42668,2.23829 -5.43164,2.23829 -1.99027,-1e-5 -3.97131,-0.82127 -5.40039,-2.20704 l -0.0312,-0.0293 -0.0312,-0.0312 c -1.39573,-1.43935 -2.20508,-3.44035 -2.20508,-5.44532 0,-2.00496 0.81861,-4.01587 2.23633,-5.43359 l 0.0156,-0.0137 0.0156,-0.0156 c 1.42908,-1.38576 3.41012,-2.20703 5.40039,-2.20703 z"
           id="path907" />
        <path
           style="color:#000000;display:inline;fill:#ffff00;stroke:none;stroke-width:25.1969;stroke-linecap:round;stroke-linejoin:round;stroke-miterlimit:4;stroke-dasharray:none"
           d="m 609.2722,57.25985 c 2.14591,0 4.27828,1.027802 5.66601,2.664063 1.57,1.817842 2.13477,4.222204 2.13477,6.851562 0,0.914802 -0.0841,1.972426 -0.23633,3.25586 l -0.002,0.02344 -3.9082,35.525395 -0.2793,2.52538 h -6.75195 l -4.14063,-38.156244 c -0.18049,-1.594311 -0.28125,-2.685114 -0.28125,-3.570312 0,-2.428279 0.63694,-4.736651 2.14453,-6.472656 1.40363,-1.616308 3.5134,-2.646485 5.6543,-2.646485 z"
           id="path905" />
      </g>
      <path
         style="color:#000000;display:inline;fill:none;stroke:#ffff00;stroke-width:12.5984252;stroke-linecap:round;stroke-linejoin:round;stroke-miterlimit:4;stroke-dasharray:none"
         d="m 608.614,43.043053 a 9.4497448,9.4497448 0 0 0 -2.57227,0.546876 9.4497448,9.4497448 0 0 0 -4.95117,4.154296 l -40.08789,69.435545 a 9.4497448,9.4497448 0 0 0 8.18164,14.17188 h 80.17578 a 9.4497448,9.4497448 0 0 0 8.18359,-14.17188 L 617.45579,47.744225 A 9.4497448,9.4497448 0 0 0 608.614,43.043053 Z"
         id="path865" />
    </g>
    <path
       id="path23506"
       style="display:inline;fill:#ffff00;stroke:none;stroke-width:2.5;stroke-linecap:butt;stroke-linejoin:round;stroke-miterlimit:4;stroke-dasharray:none"
       d="m 117.81073,111.43281 c -0.7421,0 -0.69348,2.31584 -0.92754,3.73946 -0.28894,-0.76967 -0.82105,-1.60914 -1.15429,-1.94239 -0.58579,-0.58578 -1.53531,-0.58578 -2.1211,0 -0.58578,0.58579 -0.58578,1.53531 0,2.1211 0.33325,0.33324 1.17272,0.86535 1.94238,1.15429 -1.42361,0.23406 -3.73945,0.18545 -3.73945,0.92754 0,0.7421 2.31584,0.69407 3.73945,0.92813 -0.76965,0.28894 -1.60913,0.82046 -1.94238,1.15371 -0.58578,0.58579 -0.58578,1.53589 0,2.12168 0.58579,0.58578 1.53531,0.58578 2.1211,0 0.3333,-0.33331 0.86539,-1.1732 1.15429,-1.94297 0.23417,1.42356 0.18534,3.73945 0.92754,3.73945 0.7422,0 0.69396,-2.31589 0.92813,-3.73945 0.2889,0.76977 0.8204,1.60966 1.15371,1.94297 0.58578,0.58578 1.53589,0.58578 2.12168,0 0.58578,-0.58579 0.58578,-1.5359 0,-2.12168 -0.33325,-0.33325 -1.17272,-0.86477 -1.94238,-1.15371 1.42361,-0.23406 3.73886,-0.18603 3.73886,-0.92813 0,-0.74209 -2.31525,-0.69348 -3.73886,-0.92754 0.76966,-0.28894 1.60913,-0.82105 1.94238,-1.15429 0.58578,-0.58579 0.58579,-1.53531 0,-2.1211 -0.58579,-0.58578 -1.5359,-0.58578 -2.12168,0 -0.33325,0.33325 -0.86477,1.17272 -1.15371,1.94239 -0.23406,-1.42362 -0.18603,-3.73946 -0.92813,-3.73946 z" />
  </g>
  <g
     inkscape:groupmode="layer"
     id="layer5"
     inkscape:label="orange">
    <path
       id="path21630"
       style="display:inline;fill:#ff6600;stroke:none;stroke-width:2.5;stroke-linecap:butt;stroke-linejoin:round;stroke-miterlimit:4;stroke-dasharray:none"
       inkscape:transform-center-y="-7.8000033"
       d="m 171.81073,106.03281 a 1.8,1.8 0 0 0 -1.8,1.8 1.8,1.8 0 0 0 1.8,1.8 1.8,1.8 0 0 0 1.8,-1.8 1.8,1.8 0 0 0 -1.8,-1.8 z m -5.64375,2.28926 a 1.8,1.8 0 0 0 -1.14433,0.52266 1.8,1.8 0 0 0 0,2.54589 1.8,1.8 0 0 0 2.5459,0 1.8,1.8 0 0 0 0,-2.54589 1.8,1.8 0 0 0 -1.40157,-0.52266 z m 11.03086,0 a 1.8,1.8 0 0 0 -1.14433,0.52266 1.8,1.8 0 0 0 0,2.54589 1.8,1.8 0 0 0 2.54589,0 1.8,1.8 0 0 0 0,-2.54589 1.8,1.8 0 0 0 -1.40156,-0.52266 z m -13.18711,5.51074 a 1.8,1.8 0 0 0 -1.8,1.8 1.8,1.8 0 0 0 1.8,1.8 1.8,1.8 0 0 0 1.8,-1.8 1.8,1.8 0 0 0 -1.8,-1.8 z m 15.60059,0 a 1.8,1.8 0 0 0 -1.8,1.8 1.8,1.8 0 0 0 1.8,1.8 1.8,1.8 0 0 0 1.8,-1.8 1.8,1.8 0 0 0 -1.8,-1.8 z m -13.44434,5.52012 a 1.8,1.8 0 0 0 -1.14433,0.52265 1.8,1.8 0 0 0 0,2.5459 1.8,1.8 0 0 0 2.5459,0 1.8,1.8 0 0 0 0,-2.5459 1.8,1.8 0 0 0 -1.40157,-0.52265 z m 11.03086,0 a 1.8,1.8 0 0 0 -1.14433,0.52265 1.8,1.8 0 0 0 0,2.5459 1.8,1.8 0 0 0 2.54589,0 1.8,1.8 0 0 0 0,-2.5459 1.8,1.8 0 0 0 -1.40156,-0.52265 z m -5.38711,2.27988 a 1.8,1.8 0 0 0 -1.8,1.8 1.8,1.8 0 0 0 1.8,1.8 1.8,1.8 0 0 0 1.8,-1.8 1.8,1.8 0 0 0 -1.8,-1.8 z"
       inkscape:transform-center-x="-5.1716308e-06" />
  </g>
</svg>
