<?xml version="1.0" encoding="UTF-8" standalone="no"?>
<!-- Created with Inkscape (http://www.inkscape.org/) -->

<svg
   width="8.5in"
   height="11in"
   viewBox="0 0 816 1056"
   version="1.1"
   id="svg5"
   inkscape:version="1.2.2 (732a01da63, 2022-12-09)"
   sodipodi:docname="lise-face.svg"
   xmlns:inkscape="http://www.inkscape.org/namespaces/inkscape"
   xmlns:sodipodi="http://sodipodi.sourceforge.net/DTD/sodipodi-0.dtd"
   xmlns:xlink="http://www.w3.org/1999/xlink"
   xmlns="http://www.w3.org/2000/svg"
   xmlns:svg="http://www.w3.org/2000/svg">
  <sodipodi:namedview
     id="namedview7"
     pagecolor="#ffffff"
     bordercolor="#666666"
     borderopacity="1.0"
     inkscape:pageshadow="2"
     inkscape:pageopacity="0.0"
     inkscape:pagecheckerboard="0"
     inkscape:document-units="mm"
     showgrid="false"
     units="in"
     inkscape:snap-smooth-nodes="false"
     inkscape:snap-midpoints="true"
     showguides="false"
     inkscape:guide-bbox="true"
     inkscape:snap-bbox="true"
     inkscape:bbox-nodes="true"
     inkscape:snap-page="true"
     inkscape:zoom="1.5378789"
     inkscape:cx="278.95564"
     inkscape:cy="296.18717"
     inkscape:window-width="1920"
     inkscape:window-height="1001"
     inkscape:window-x="-9"
     inkscape:window-y="-9"
     inkscape:window-maximized="1"
     inkscape:current-layer="layer5"
     inkscape:object-paths="false"
     inkscape:snap-center="true"
     inkscape:snap-bbox-midpoints="true"
     inkscape:snap-intersection-paths="false"
     inkscape:showpageshadow="2"
     inkscape:deskcolor="#d1d1d1">
    <inkscape:grid
       type="xygrid"
       id="grid15711"
       empspacing="10"
       units="mm"
       spacingx="3.7795276"
       spacingy="3.7795276" />
    <sodipodi:guide
       position="259.37008,797.88976"
       orientation="1,0"
       id="guide22727"
       inkscape:locked="false" />
    <sodipodi:guide
       position="259.37008,797.88976"
       orientation="0,-1"
       id="guide22729"
       inkscape:locked="false" />
    <sodipodi:guide
       position="279.37009,777.88976"
       orientation="0,-1"
       id="guide23322"
       inkscape:locked="false" />
  </sodipodi:namedview>
  <defs
     id="defs2" />
  <g
     inkscape:groupmode="layer"
     id="layer2"
     inkscape:label="bg"
     style="display:inline">
    <rect
       style="display:inline;fill:#000000"
       id="rect846"
       width="158.74016"
       height="158.74016"
       x="-1.7763568e-15"
       y="-3.5527137e-15"
       rx="37.795277" />
    <rect
       style="display:inline;fill:#000000"
       id="rect16447"
       width="158.74016"
       height="158.74016"
       x="178.74016"
       y="-3.5527137e-15"
       rx="37.795277" />
    <rect
       style="display:inline;fill:#000000"
       id="rect16449"
       width="158.74016"
       height="158.74016"
       x="357.48032"
       y="-3.5527137e-15"
       rx="37.795277" />
    <rect
       style="display:inline;fill:#000000"
       id="rect963"
       width="158.74016"
       height="158.74016"
       x="536.22046"
       y="-3.5527137e-15"
       rx="37.795277" />
    <rect
       style="display:inline;fill:#000000"
       id="rect6884"
       width="158.74016"
       height="158.74016"
       x="-1.7763568e-15"
       y="178.74016"
       rx="37.795277" />
    <rect
       style="display:inline;fill:#000000"
       id="rect22659"
       width="158.74016"
       height="158.74016"
       x="180"
       y="178.74016"
       rx="37.795277" />
    <rect
       style="display:inline;fill:#000000"
       id="rect21794"
       width="158.74016"
       height="158.74016"
       x="360"
       y="178.74016"
       rx="37.795277" />
    <rect
       style="display:inline;fill:#000000"
       id="rect22182"
       width="158.74016"
       height="158.74016"
       x="540"
       y="178.74016"
       rx="37.795277" />
    <rect
       style="display:inline;fill:#000000"
       id="rect21543"
       width="158.74016"
       height="158.74016"
       x="0"
       y="358.74017"
       rx="37.795277" />
  </g>
  <g
     inkscape:groupmode="layer"
     id="layer3"
     inkscape:label="green"
     style="display:inline">
    <path
       id="rect984"
       style="fill:#b7fc68;fill-opacity:1"
       d="m 48.032185,60.472576 c -4.18771,0 -7.55859,3.37088 -7.55859,7.55859 v 3.7793 h -3.78125 c -2.09386,0 -3.7793,1.685439 -3.7793,3.779299 0,2.09386 1.68544,3.78125 3.7793,3.78125 h 3.78125 v 11.33789 c 0,4.18772 3.37088,7.55859 7.55859,7.55859 h 3.7793 c 4.18772,0 7.55859,-3.37087 7.55859,-7.55859 v -15.11914 -7.558599 c 0,-4.18771 -3.37087,-7.55859 -7.55859,-7.55859 z" />
    <use
       x="0"
       y="0"
       xlink:href="#rect984"
       id="use10933"
       transform="matrix(-1,0,0,1,158.74016,8.4069824e-7)"
       width="100%"
       height="100%" />
    <path
       style="color:#000000;fill:#b7fc68;stroke-linecap:round;-inkscape-stroke:none"
       d="m 61.259766,109.65234 a 3.77953,3.77953 0 0 0 -3.140625,4.32618 c 0.792715,4.99319 4.023241,8.84726 7.964843,11.16796 3.941603,2.32071 8.62202,3.35743 13.285157,3.35743 4.663136,0 9.345507,-1.03672 13.287109,-3.35743 3.941602,-2.3207 7.17213,-6.17477 7.96484,-11.16796 a 3.77953,3.77953 0 0 0 -3.140621,-4.32618 3.77953,3.77953 0 0 0 -4.324219,3.14063 c -0.407352,2.56585 -1.858212,4.38103 -4.335938,5.83984 -2.477725,1.45882 -5.955226,2.3125 -9.451171,2.3125 -3.495946,0 -6.973446,-0.85368 -9.451172,-2.3125 -2.477726,-1.45881 -3.926631,-3.27399 -4.333985,-5.83984 a 3.77953,3.77953 0 0 0 -4.324218,-3.14063 z"
       id="path10970" />
  </g>
  <g
     inkscape:groupmode="layer"
     id="layer1"
     inkscape:label="red"
     style="display:inline">
    <path
       id="path1417"
       style="display:inline;color:#000000;fill:#ff4a4a;stroke-width:18.8976;stroke-linecap:round;stroke-linejoin:round;-inkscape-stroke:none"
       d="m 436.19141,35.226562 a 9.4497448,9.4497448 0 0 0 -2.57227,0.546876 9.4497448,9.4497448 0 0 0 -4.95117,4.154296 l -40.08789,69.435546 a 9.4497448,9.4497448 0 0 0 8.18164,14.17188 h 80.17578 a 9.4497448,9.4497448 0 0 0 8.18359,-14.17188 L 445.0332,39.927734 a 9.4497448,9.4497448 0 0 0 -8.84179,-4.701172 z m 0.6582,14.216797 c 2.14591,0 4.27828,1.027802 5.66601,2.664063 1.57,1.817842 2.13477,4.222204 2.13477,6.851562 0,0.914802 -0.0841,1.972426 -0.23633,3.25586 l -0.002,0.02344 -3.9082,35.525391 -0.2793,2.525385 h -6.75195 l -4.14063,-38.156245 c -0.18049,-1.594311 -0.28125,-2.685114 -0.28125,-3.570312 0,-2.428279 0.63694,-4.736651 2.14453,-6.472656 1.40363,-1.616308 3.5134,-2.646485 5.6543,-2.646485 z m -0.043,52.470701 c 1.99643,0 3.99347,0.81606 5.41016,2.22266 1.44607,1.4095 2.30273,3.42792 2.30273,5.44726 0,2.02551 -0.84878,4.04215 -2.28125,5.47461 -1.41772,1.41772 -3.42668,2.23829 -5.43164,2.23829 -1.99027,-1e-5 -3.97131,-0.82127 -5.40039,-2.20704 l -0.0312,-0.0293 -0.0312,-0.0312 c -1.39573,-1.43935 -2.20508,-3.44035 -2.20508,-5.44532 0,-2.00496 0.81861,-4.01587 2.23633,-5.43359 l 0.0156,-0.0137 0.0156,-0.0156 c 1.42908,-1.38576 3.41012,-2.20703 5.40039,-2.20703 z" />
    <path
       id="path16526"
       style="color:#000000;fill:#ff4a4a;-inkscape-stroke:none"
       d="M 224.70312 32.601562 L 211.3418 45.962891 L 244.75 79.371094 L 211.3418 112.77734 L 224.70312 126.13867 L 258.10938 92.730469 L 291.51758 126.13867 L 304.87891 112.77734 L 271.47266 79.371094 L 304.87891 45.962891 L 291.51758 32.601562 L 258.10938 66.007812 L 224.70312 32.601562 z " />
  </g>
  <g
     inkscape:groupmode="layer"
     id="layer4"
     inkscape:label="yellow"
     style="display:inline">
    <g
       id="g973"
       transform="translate(6.3173683,-7.8158082)">
      <g
         id="g967">
        <path
           style="color:#000000;display:inline;fill:#ffff00;stroke:none;stroke-width:7.55906;stroke-linecap:round;stroke-linejoin:round;stroke-miterlimit:4;stroke-dasharray:none"
           d="m 609.2292,109.73055 c 1.99643,0 3.99347,0.81606 5.41016,2.22266 1.44607,1.4095 2.30273,3.42792 2.30273,5.44726 0,2.02551 -0.84878,4.04215 -2.28125,5.47461 -1.41772,1.41772 -3.42668,2.23829 -5.43164,2.23829 -1.99027,-1e-5 -3.97131,-0.82127 -5.40039,-2.20704 l -0.0312,-0.0293 -0.0312,-0.0312 c -1.39573,-1.43935 -2.20508,-3.44035 -2.20508,-5.44532 0,-2.00496 0.81861,-4.01587 2.23633,-5.43359 l 0.0156,-0.0137 0.0156,-0.0156 c 1.42908,-1.38576 3.41012,-2.20703 5.40039,-2.20703 z"
           id="path907" />
        <path
           style="color:#000000;display:inline;fill:#ffff00;stroke:none;stroke-width:7.55906;stroke-linecap:round;stroke-linejoin:round;stroke-miterlimit:4;stroke-dasharray:none"
           d="m 609.2722,57.25985 c 2.14591,0 4.27828,1.027802 5.66601,2.664063 1.57,1.817842 2.13477,4.222204 2.13477,6.851562 0,0.914802 -0.0841,1.972426 -0.23633,3.25586 l -0.002,0.02344 -3.9082,35.525395 -0.2793,2.52538 h -6.75195 l -4.14063,-38.156244 c -0.18049,-1.594311 -0.28125,-2.685114 -0.28125,-3.570312 0,-2.428279 0.63694,-4.736651 2.14453,-6.472656 1.40363,-1.616308 3.5134,-2.646485 5.6543,-2.646485 z"
           id="path905" />
      </g>
      <path
         style="color:#000000;display:inline;fill:none;stroke:#ffff00;stroke-width:7.55906;stroke-linecap:round;stroke-linejoin:round;stroke-miterlimit:4;stroke-dasharray:none"
         d="m 608.614,43.043053 a 9.4497448,9.4497448 0 0 0 -2.57227,0.546876 9.4497448,9.4497448 0 0 0 -4.95117,4.154296 l -40.08789,69.435545 a 9.4497448,9.4497448 0 0 0 8.18164,14.17188 h 80.17578 a 9.4497448,9.4497448 0 0 0 8.18359,-14.17188 L 617.45579,47.744225 A 9.4497448,9.4497448 0 0 0 608.614,43.043053 Z"
         id="path865" />
    </g>
    <path
       id="path23506"
       style="display:inline;fill:#ffff00;stroke:none;stroke-width:2.5;stroke-linecap:butt;stroke-linejoin:round;stroke-miterlimit:4;stroke-dasharray:none"
       d="M 259.36914 238.10938 C 256.89548 238.10937 257.05752 245.82884 256.27734 250.57422 C 255.31421 248.00868 253.54051 245.21043 252.42969 244.09961 C 250.47707 242.14699 247.31199 242.14699 245.35938 244.09961 C 243.40675 246.05223 243.40676 249.2173 245.35938 251.16992 C 246.4702 252.28074 249.26845 254.05444 251.83398 255.01758 C 247.08861 255.79776 239.36914 255.63572 239.36914 258.10938 C 239.36914 260.58303 247.08861 260.42295 251.83398 261.20312 C 249.26845 262.16626 246.4702 263.93801 245.35938 265.04883 C 243.40675 267.00145 243.40675 270.16846 245.35938 272.12109 C 247.312 274.07371 250.47707 274.07371 252.42969 272.12109 C 253.54071 271.01007 255.31433 268.21044 256.27734 265.64453 C 257.05789 270.38974 256.89514 278.10937 259.36914 278.10938 C 261.84314 278.10938 261.68234 270.38974 262.46289 265.64453 C 263.42591 268.21044 265.19757 271.01007 266.30859 272.12109 C 268.26121 274.07371 271.42824 274.07371 273.38086 272.12109 C 275.33348 270.16847 275.33348 267.00145 273.38086 265.04883 C 272.27004 263.93801 269.47179 262.16626 266.90625 261.20312 C 271.65163 260.42294 279.36914 260.58303 279.36914 258.10938 C 279.36914 255.63572 271.65163 255.79776 266.90625 255.01758 C 269.47179 254.05444 272.27004 252.28074 273.38086 251.16992 C 275.33348 249.2173 275.33349 246.05224 273.38086 244.09961 C 271.42824 242.14699 268.26121 242.14699 266.30859 244.09961 C 265.19777 245.21043 263.42603 248.00868 262.46289 250.57422 C 261.68271 245.82884 261.8428 238.10938 259.36914 238.10938 z " />
  </g>
  <g
     inkscape:groupmode="layer"
     id="layer6"
     inkscape:label="purple">
    <path
       id="circle21712"
       style="display:inline;fill:#800080;stroke:none;stroke-width:2.5;stroke-linecap:butt;stroke-linejoin:round;stroke-miterlimit:4;stroke-dasharray:none"
       inkscape:transform-center-x="-40"
       inkscape:transform-center-y="-1.1e-05"
       d="m 79.37109,398.10938 a 6,6 0 0 0 -6,6 6,6 0 0 0 6,6 6,6 0 0 0 6,-6 6,6 0 0 0 -6,-6 z M 50.6582,409.8418 a 6,6 0 0 0 -3.81445,1.74218 6,6 0 0 0 0,8.48438 6,6 0 0 0 8.48437,0 6,6 0 0 0 0,-8.48438 6,6 0 0 0 -4.66992,-1.74218 z m 56.56836,0 a 6,6 0 0 0 -3.81445,1.74218 6,6 0 0 0 0,8.48438 6,6 0 0 0 8.48437,0 6,6 0 0 0 0,-8.48438 6,6 0 0 0 -4.66992,-1.74218 z m -67.85742,28.26758 a 6,6 0 0 0 -6,6 6,6 0 0 0 6,6 6,6 0 0 0 6,-6 6,6 0 0 0 -6,-6 z m 80,0 a 6,6 0 0 0 -6,6 6,6 0 0 0 6,6 6,6 0 0 0 6,-6 6,6 0 0 0 -6,-6 z M 50.6582,466.41016 a 6,6 0 0 0 -3.81445,1.74218 6,6 0 0 0 0,8.48438 6,6 0 0 0 8.48437,0 6,6 0 0 0 0,-8.48438 6,6 0 0 0 -4.66992,-1.74218 z m 56.56836,0 a 6,6 0 0 0 -3.81445,1.74218 6,6 0 0 0 0,8.48438 6,6 0 0 0 8.48437,0 6,6 0 0 0 0,-8.48438 6,6 0 0 0 -4.66992,-1.74218 z m -27.85742,11.69922 a 6,6 0 0 0 -6,6 6,6 0 0 0 6,6 6,6 0 0 0 6,-6 6,6 0 0 0 -6,-6 z" />
    <path
       id="path22242"
       style="display:inline;fill:#ff00ff;stroke-width:2.5;stroke-linejoin:round"
       inkscape:transform-center-y="-38.00001"
       d="M 619.36914 212.10938 C 616.05543 212.10938 613.36914 214.79567 613.36914 218.10938 C 613.36914 221.42309 616.05543 228.10938 619.36914 228.10938 C 622.68285 228.10937 625.36914 221.42308 625.36914 218.10938 C 625.36914 214.79567 622.68285 212.10938 619.36914 212.10938 z M 591.08594 223.82617 C 589.5504 223.82617 588.01533 224.41241 586.84375 225.58398 C 584.5006 227.92713 584.5006 231.72522 586.84375 234.06836 C 589.1869 236.41151 595.8131 239.23963 598.15625 236.89648 C 600.4994 234.55333 597.67128 227.92713 595.32812 225.58398 C 594.15656 224.41241 592.62147 223.82617 591.08594 223.82617 z M 647.6543 223.82617 C 646.11876 223.82617 644.58368 224.41241 643.41211 225.58398 C 641.06896 227.92713 638.24083 234.55333 640.58398 236.89648 C 642.92713 239.23963 649.55333 236.41151 651.89648 234.06836 C 654.23963 231.72522 654.23963 227.92713 651.89648 225.58398 C 650.72491 224.41241 649.18983 223.82617 647.6543 223.82617 z M 579.36914 252.10938 C 576.05543 252.10938 573.36914 254.79567 573.36914 258.10938 C 573.36914 261.42309 576.05543 264.10938 579.36914 264.10938 C 582.68285 264.10938 589.36914 261.42309 589.36914 258.10938 C 589.36914 254.79567 582.68285 252.10938 579.36914 252.10938 z M 659.36914 252.10938 C 656.05543 252.10938 649.36914 254.79567 649.36914 258.10938 C 649.36914 261.42309 656.05543 264.10938 659.36914 264.10938 C 662.68285 264.10938 665.36914 261.42309 665.36914 258.10938 C 665.36914 254.79567 662.68285 252.10938 659.36914 252.10938 z M 595.35352 278.44727 C 592.42442 278.53236 588.52789 280.4682 586.84375 282.15234 C 584.5006 284.49548 584.5006 288.29357 586.84375 290.63672 C 589.1869 292.97987 592.98499 292.97987 595.32812 290.63672 C 597.67128 288.29357 600.4994 281.66737 598.15625 279.32422 C 597.49724 278.66521 596.49968 278.41397 595.35352 278.44727 z M 643.00977 278.44727 C 642.02233 278.47499 641.16977 278.73843 640.58398 279.32422 C 638.24083 281.66737 641.06896 288.29357 643.41211 290.63672 C 645.75525 292.97987 649.55333 292.97987 651.89648 290.63672 C 654.23963 288.29357 654.23963 284.49548 651.89648 282.15234 C 650.13912 280.39498 645.97208 278.36408 643.00977 278.44727 z M 619.36914 288.10938 C 616.05543 288.10938 613.36914 294.79566 613.36914 298.10938 C 613.36914 301.42309 616.05543 304.10938 619.36914 304.10938 C 622.68285 304.10938 625.36914 301.42309 625.36914 298.10938 C 625.36914 294.79566 622.68285 288.10938 619.36914 288.10938 z " />
    <path
       id="path25002"
       style="color:#000000;display:inline;fill:#ff00ff;stroke-width:1;stroke-linecap:round;-inkscape-stroke:none"
       d="M 45.919922 229.76367 C 41.256785 229.76367 36.576369 230.80038 32.634766 233.12109 C 28.693164 235.44179 25.462637 239.29587 24.669922 244.28906 A 3.77953 3.77953 0 0 0 27.810547 248.61523 A 3.77953 3.77953 0 0 0 32.134766 245.47461 C 32.54212 242.90876 33.991024 241.09358 36.46875 239.63477 C 38.946476 238.17595 42.423976 237.32227 45.919922 237.32227 C 49.415867 237.32227 52.893369 238.17595 55.371094 239.63477 C 57.84882 241.09358 59.299679 242.90876 59.707031 245.47461 A 3.77953 3.77953 0 0 0 64.03125 248.61523 A 3.77953 3.77953 0 0 0 67.171875 244.28906 C 66.379165 239.29587 63.148633 235.44179 59.207031 233.12109 C 55.265429 230.80038 50.583058 229.76367 45.919922 229.76367 z M 112.81641 229.76367 C 108.15327 229.76367 103.47286 230.80038 99.53125 233.12109 C 95.589648 235.44179 92.359121 239.29587 91.566406 244.28906 A 3.77953 3.77953 0 0 0 94.707031 248.61523 A 3.77953 3.77953 0 0 0 99.03125 245.47461 C 99.438604 242.90876 100.8875 241.09358 103.36523 239.63477 C 105.84295 238.17595 109.32046 237.32227 112.81641 237.32227 C 116.31236 237.32227 119.78986 238.17595 122.26758 239.63477 C 124.74531 241.09358 126.19617 242.90876 126.60352 245.47461 A 3.77953 3.77953 0 0 0 130.92773 248.61523 A 3.77953 3.77953 0 0 0 134.06836 244.28906 C 133.27565 239.29587 130.04512 235.44179 126.10352 233.12109 C 122.16192 230.80038 117.47955 229.76367 112.81641 229.76367 z M 56.492188 265.38086 L 56.492188 273.45898 C 56.492188 276.39519 56.777958 278.75846 57.351562 280.54883 C 57.925168 282.35351 58.857824 283.98634 60.148438 285.44727 C 62.012656 287.55275 64.637402 289.23566 68.017578 290.49609 C 71.397754 291.77082 75.165579 292.4082 79.324219 292.4082 C 83.769662 292.4082 87.610882 291.79948 90.847656 290.58203 C 94.084429 289.36458 96.674932 287.66731 98.621094 285.49023 C 99.747818 284.21549 100.62861 282.6543 101.26367 280.80664 C 101.91922 278.9733 102.24805 276.49544 102.24805 273.37305 L 102.24805 265.38086 L 56.492188 265.38086 z M 63.322266 270.47656 L 95.419922 270.47656 L 95.419922 274.10938 C 95.419922 275.90625 95.231846 277.44922 94.859375 278.73828 C 94.505527 280.02734 93.864772 281.2448 92.933594 282.39062 C 91.648568 283.96616 89.88717 285.15104 87.652344 285.94531 C 85.417517 286.73958 82.671232 287.13672 79.412109 287.13672 C 76.171611 287.13672 73.470879 286.77214 71.310547 286.04297 C 69.150214 285.32682 67.40821 284.2461 66.085938 282.80078 C 65.024394 281.64193 64.299298 280.36589 63.908203 278.97266 C 63.517108 277.59245 63.322266 275.97136 63.322266 274.10938 L 63.322266 270.47656 z " />
  </g>
  <g
     inkscape:groupmode="layer"
     id="layer5"
     inkscape:label="orange">
    <path
       id="path21630"
       style="display:inline;fill:#ff6600;stroke:none;stroke-width:2.5;stroke-linecap:butt;stroke-linejoin:round;stroke-miterlimit:4;stroke-dasharray:none"
       inkscape:transform-center-y="-26.000011"
       d="m 439.36914,220.10938 a 6,6 0 0 0 -6,6 6,6 0 0 0 6,6 6,6 0 0 0 6,-6 6,6 0 0 0 -6,-6 z m -18.8125,7.63085 a 6,6 0 0 0 -3.81445,1.74219 6,6 0 0 0 0,8.48633 6,6 0 0 0 8.48633,0 6,6 0 0 0 0,-8.48633 6,6 0 0 0 -4.67188,-1.74219 z m 36.76953,0 a 6,6 0 0 0 -3.81445,1.74219 6,6 0 0 0 0,8.48633 6,6 0 0 0 8.48633,0 6,6 0 0 0 0,-8.48633 6,6 0 0 0 -4.67188,-1.74219 z m -43.95703,18.36915 a 6,6 0 0 0 -6,6 6,6 0 0 0 6,6 6,6 0 0 0 6,-6 6,6 0 0 0 -6,-6 z m 52.00195,0 a 6,6 0 0 0 -6,6 6,6 0 0 0 6,6 6,6 0 0 0 6,-6 6,6 0 0 0 -6,-6 z m -44.81445,18.40039 a 6,6 0 0 0 -3.81445,1.74218 6,6 0 0 0 0,8.48633 6,6 0 0 0 8.48633,0 6,6 0 0 0 0,-8.48633 6,6 0 0 0 -4.67188,-1.74218 z m 36.76953,0 a 6,6 0 0 0 -3.81445,1.74218 6,6 0 0 0 0,8.48633 6,6 0 0 0 8.48633,0 6,6 0 0 0 0,-8.48633 6,6 0 0 0 -4.67188,-1.74218 z m -17.95703,7.59961 a 6,6 0 0 0 -6,6 6,6 0 0 0 6,6 6,6 0 0 0 6,-6 6,6 0 0 0 -6,-6 z" />
  </g>
</svg>
