<?xml version="1.0" encoding="UTF-8" standalone="no"?>
<!-- Created with Inkscape (http://www.inkscape.org/) -->

<svg
   width="8.5in"
   height="11in"
   viewBox="0 0 816 1056"
   version="1.1"
   id="svg5"
   inkscape:version="1.2.2 (732a01da63, 2022-12-09)"
   sodipodi:docname="lise-face.svg"
   xmlns:inkscape="http://www.inkscape.org/namespaces/inkscape"
   xmlns:sodipodi="http://sodipodi.sourceforge.net/DTD/sodipodi-0.dtd"
   xmlns:xlink="http://www.w3.org/1999/xlink"
   xmlns="http://www.w3.org/2000/svg"
   xmlns:svg="http://www.w3.org/2000/svg">
  <sodipodi:namedview
     id="namedview7"
     pagecolor="#ffffff"
     bordercolor="#666666"
     borderopacity="1.0"
     inkscape:pageshadow="2"
     inkscape:pageopacity="0.0"
     inkscape:pagecheckerboard="0"
     inkscape:document-units="mm"
     showgrid="false"
     units="in"
     inkscape:snap-smooth-nodes="false"
     inkscape:snap-midpoints="true"
     showguides="false"
     inkscape:guide-bbox="true"
     inkscape:snap-bbox="true"
     inkscape:bbox-nodes="true"
     inkscape:snap-page="true"
     inkscape:zoom="0.5437223"
     inkscape:cx="107.59169"
     inkscape:cy="594.97284"
     inkscape:window-width="1920"
     inkscape:window-height="1001"
     inkscape:window-x="-9"
     inkscape:window-y="-9"
     inkscape:window-maximized="1"
     inkscape:current-layer="layer7"
     inkscape:object-paths="false"
     inkscape:snap-center="true"
     inkscape:snap-bbox-midpoints="true"
     inkscape:snap-intersection-paths="false"
     inkscape:showpageshadow="2"
     inkscape:deskcolor="#d1d1d1">
    <inkscape:grid
       type="xygrid"
       id="grid15711"
       empspacing="10"
       units="mm"
       spacingx="3.7795276"
       spacingy="3.7795276" />
    <sodipodi:guide
       position="259.37008,797.88976"
       orientation="1,0"
       id="guide22727"
       inkscape:locked="false" />
    <sodipodi:guide
       position="259.37008,797.88976"
       orientation="0,-1"
       id="guide22729"
       inkscape:locked="false" />
    <sodipodi:guide
       position="279.37009,777.88976"
       orientation="0,-1"
       id="guide23322"
       inkscape:locked="false" />
  </sodipodi:namedview>
  <defs
     id="defs2" />
  <g
     inkscape:groupmode="layer"
     id="layer7"
     inkscape:label="image"
     sodipodi:insensitive="true">
    <g
       transform="matrix(7.5590552,0,0,-7.5590552,525.31956,708.63498)"
       id="g929"
       style="display:inline;fill:none;stroke-linecap:round;stroke-linejoin:round">
      <!-- Polyline -->
      <path
         d="M 11,21 H -11 A 10,10 0 0 1 -21,11 v -22 a 10,10 0 0 1 10,-10 h 22 a 10,10 0 0 1 10,10 V 11 A 10,10 0 0 1 11,21"
         style="stroke:#000000;stroke-width:0.25"
         id="path843" />
      <!-- Rotated Dimension -->
      <g
         id="g853">
        <g
           id="g847">
          <path
             d="m -0.6944,27.625 v 1.1111 m 0.4166,-0.5555 h -1.3889 l 0.5556,1.9444 m 2.7778,-2.5 H 0.5556 l 1.0736,1.8464 c 0.0068,0.0118 0.0181,0.0366 0.0225,0.0495 0.0045,0.0129 0.0107,0.0394 0.0125,0.0529 0.0019,0.0135 0.0028,0.0408 0.002,0.0544 -9e-4,0.0136 -0.0053,0.0405 -0.0087,0.0537 -0.0018,0.0067 -0.006,0.0199 -0.0085,0.0264 -0.0068,0.0264 -0.0256,0.0776 -0.0374,0.1022 -0.0118,0.0246 -0.0402,0.0712 -0.0567,0.093 -0.0164,0.0218 -0.0533,0.062 -0.0737,0.0802 -0.0203,0.0182 -0.0644,0.0504 -0.0879,0.0642 -0.0235,0.0139 -0.073,0.0369 -0.0988,0.0459 -0.0258,0.009 -0.0788,0.0219 -0.1058,0.0257 C 1.1616,30.1233 1.1071,30.1256 1.0798,30.1241 1.0526,30.1225 0.9987,30.1141 0.9722,30.1073 0.9458,30.1005 0.8945,30.0817 0.87,30.0699 0.8454,30.058 0.7987,30.0296 0.7769,30.0132 0.7551,29.9968 0.715,29.9599 0.6968,29.9395 0.6786,29.9191 0.6464,29.8751 0.6325,29.8516 0.6187,29.828 0.5957,29.7785 0.5867,29.7528 0.5829,29.7419 0.5761,29.7197 0.5733,29.7086"
             style="stroke:#00ff00;stroke-width:0.25"
             id="path845" />
        </g>
        <path
           d="m -21,27 2.5,0.4163 v -0.8326 z"
           style="fill:#00ff00;fill-rule:evenodd;stroke:#00ff00;stroke-width:0.25"
           id="path849" />
        <path
           d="m 21,27 -2.5,-0.4163 v 0.8326 z"
           style="fill:#00ff00;fill-rule:evenodd;stroke:#00ff00;stroke-width:0.25"
           id="path851" />
      </g>
      <path
         d="M -21,27 H 21 M -21,11.625 V 28.25 M 21,11.625 V 28.25"
         style="stroke:#00ff00;stroke-width:0.25"
         id="path855" />
      <!-- Rotated Dimension -->
      <g
         id="g865">
        <g
           id="g859">
          <path
             d="m 26.375,-0.6944 h -1.1111 m 0.5555,0.4166 v -1.3889 l -1.9444,0.5556 m 2.5,2.7778 V 0.5556 L 24.5286,1.6292 C 24.5168,1.636 24.492,1.6473 24.4791,1.6517 24.4662,1.6562 24.4397,1.6624 24.4262,1.6642 24.4127,1.6661 24.3854,1.667 24.3718,1.6662 24.3582,1.6653 24.3313,1.6609 24.3181,1.6575 24.3114,1.6557 24.2982,1.6515 24.2918,1.649 24.2653,1.6422 24.2141,1.6234 24.1895,1.6116 24.1649,1.5998 24.1183,1.5714 24.0965,1.5549 24.0747,1.5385 24.0345,1.5016 24.0163,1.4812 23.9981,1.4609 23.9659,1.4168 23.9521,1.3933 23.9382,1.3698 23.9152,1.3203 23.9062,1.2945 23.8972,1.2687 23.8843,1.2157 23.8805,1.1887 23.8767,1.1616 23.8744,1.1071 23.8759,1.0798 23.8775,1.0526 23.8859,0.9987 23.8927,0.9722 23.8995,0.9458 23.9183,0.8945 23.9301,0.87 23.942,0.8454 23.9704,0.7987 23.9868,0.7769 24.0032,0.7551 24.0401,0.715 24.0605,0.6968 24.0809,0.6786 24.1249,0.6464 24.1484,0.6325 24.172,0.6187 24.2215,0.5957 24.2472,0.5867 24.2581,0.5829 24.2803,0.5761 24.2914,0.5733"
             style="stroke:#00ff00;stroke-width:0.25"
             id="path857" />
        </g>
        <path
           d="m 27,21 0.4163,-2.5 h -0.8326 z"
           style="fill:#00ff00;fill-rule:evenodd;stroke:#00ff00;stroke-width:0.25"
           id="path861" />
        <path
           d="m 27,-21 -0.4163,2.5 h 0.8326 z"
           style="fill:#00ff00;fill-rule:evenodd;stroke:#00ff00;stroke-width:0.25"
           id="path863" />
      </g>
      <path
         d="M 27,21 V -21 M 11.625,21 H 28.25 M 11.625,-21 H 28.25"
         style="stroke:#00ff00;stroke-width:0.25"
         id="path867" />
      <!-- Leader -->
      <path
         d="m -18.0711,-18.0711 -1.4734,-2.0621 -0.5887,0.5887 z"
         style="fill:#00ff00;fill-rule:evenodd;stroke:#00ff00;stroke-width:0.25"
         id="path869" />
      <path
         d="M -18.0711,-18.0711 -27,-27 h -6"
         style="stroke:#00ff00;stroke-width:0.25"
         id="path871" />
      <!-- Text: R10 -->
      <g
         id="g875">
        <path
           d="m -39.988,-28.25 v 2.5 h 1.1084 c 0.2228,0 0.3922,-0.0225 0.5082,-0.0674 0.116,-0.0449 0.2086,-0.1242 0.278,-0.2379 0.0693,-0.1136 0.104,-0.2393 0.104,-0.3768 0,-0.1774 -0.0574,-0.3269 -0.1723,-0.4485 -0.1148,-0.1217 -0.2921,-0.199 -0.532,-0.232 0.0875,-0.042 0.154,-0.0835 0.1995,-0.1244 0.0966,-0.0887 0.1882,-0.1996 0.2746,-0.3326 l 0.4348,-0.6804 h -0.4161 l -0.3308,0.5201 c -0.0966,0.1501 -0.1762,0.2649 -0.2387,0.3445 -0.0626,0.0796 -0.1186,0.1353 -0.168,0.1671 -0.0495,0.0319 -0.0998,0.054 -0.1509,0.0665 -0.0376,0.008 -0.099,0.012 -0.1842,0.012 h -0.3837 V -28.25 Z m 0.3308,1.3967 h 0.7111 c 0.1512,0 0.2694,0.0156 0.3547,0.0469 0.0853,0.0312 0.1501,0.0812 0.1944,0.15 0.0444,0.0688 0.0665,0.1436 0.0665,0.2243 0,0.1182 -0.0429,0.2154 -0.1287,0.2916 -0.0859,0.0762 -0.2214,0.1142 -0.4067,0.1142 h -0.7913 z m 3.2262,-1.3967 h -0.3069 v 1.956 c -0.0739,-0.0705 -0.1708,-0.141 -0.2908,-0.2115 -0.1199,-0.0704 -0.2276,-0.1233 -0.3231,-0.1586 v 0.2968 c 0.1716,0.0807 0.3217,0.1785 0.4502,0.2933 0.1284,0.1148 0.2194,0.2262 0.2728,0.3342 h 0.1978 z m 0.7888,1.2329 c 0,0.2956 0.0304,0.5335 0.0912,0.7137 0.0608,0.1802 0.1512,0.3192 0.2711,0.417 0.12,0.0977 0.2709,0.1466 0.4528,0.1466 0.1342,0 0.2518,-0.027 0.353,-0.081 0.1012,-0.054 0.1847,-0.1318 0.2507,-0.2336 0.0659,-0.1018 0.1177,-0.2257 0.1552,-0.3718 0.0375,-0.146 0.0562,-0.343 0.0562,-0.5909 0,-0.2933 -0.0301,-0.53 -0.0903,-0.7102 -0.0603,-0.1802 -0.1504,-0.3195 -0.2703,-0.4178 -0.12,-0.0984 -0.2715,-0.1475 -0.4545,-0.1475 -0.241,0 -0.4303,0.0864 -0.5679,0.2592 -0.1648,0.208 -0.2472,0.5468 -0.2472,1.0163 m 0.3154,0 c 0,-0.4104 0.0481,-0.6835 0.1441,-0.8194 0.0961,-0.1358 0.2146,-0.2037 0.3556,-0.2037 0.141,0 0.2595,0.0682 0.3556,0.2046 0.096,0.1364 0.1441,0.4093 0.1441,0.8185 0,0.4116 -0.0481,0.685 -0.1441,0.8203 -0.0961,0.1353 -0.2158,0.2029 -0.359,0.2029 -0.141,0 -0.2535,-0.0596 -0.3377,-0.179 -0.1057,-0.1524 -0.1586,-0.4337 -0.1586,-0.8442"
           style="fill:#00ff00;fill-rule:evenodd"
           id="path873" />
      </g>
      <!-- Text: Background -->
      <g
         id="g879">
        <path
           d="m -9.0823,-1.25 v 2.5 h 0.9379 c 0.191,0 0.3442,-0.0253 0.4596,-0.0759 0.1154,-0.0506 0.2057,-0.1285 0.2711,-0.2336 0.0654,-0.1052 0.0981,-0.2152 0.0981,-0.33 0,-0.1069 -0.029,-0.2075 -0.087,-0.3018 -0.058,-0.0944 -0.1455,-0.1706 -0.2626,-0.2285 0.1512,-0.0444 0.2674,-0.12 0.3487,-0.2269 0.0813,-0.1068 0.1219,-0.233 0.1219,-0.3785 0,-0.1171 -0.0247,-0.226 -0.0741,-0.3266 C -7.3182,-0.9524 -7.3793,-1.03 -7.4521,-1.0846 -7.5248,-1.1392 -7.6161,-1.1804 -7.7258,-1.2082 -7.8355,-1.2361 -7.9699,-1.25 -8.1291,-1.25 Z m 0.3308,1.4495 h 0.5406 c 0.1466,0 0.2518,0.0097 0.3155,0.029 0.0841,0.025 0.1475,0.0665 0.1901,0.1245 0.0426,0.058 0.0639,0.1307 0.0639,0.2183 0,0.083 -0.0198,0.156 -0.0596,0.2191 -0.0398,0.0631 -0.0967,0.1063 -0.1706,0.1296 -0.0739,0.0233 -0.2006,0.035 -0.3803,0.035 h -0.4996 z m 0,-1.1545 h 0.6224 c 0.1069,0 0.1819,0.004 0.2251,0.012 0.0762,0.0136 0.1399,0.0363 0.191,0.0682 0.0512,0.0318 0.0932,0.0781 0.1262,0.139 0.033,0.0608 0.0495,0.131 0.0495,0.2106 0,0.0932 -0.0239,0.1742 -0.0717,0.243 -0.0477,0.0688 -0.1139,0.1171 -0.1986,0.1449 -0.0847,0.0279 -0.2066,0.0418 -0.3658,0.0418 h -0.5781 z m 3.1467,-0.0716 c -0.1137,-0.0966 -0.2231,-0.1649 -0.3283,-0.2046 -0.1051,-0.0398 -0.218,-0.0597 -0.3385,-0.0597 -0.1989,0 -0.3518,0.0486 -0.4587,0.1458 -0.1069,0.0972 -0.1603,0.2214 -0.1603,0.3726 0,0.0887 0.0202,0.1697 0.0605,0.243 0.0404,0.0733 0.0933,0.1322 0.1586,0.1765 0.0654,0.0443 0.139,0.0779 0.2209,0.1006 0.0602,0.0159 0.1512,0.0313 0.2728,0.0461 0.2479,0.0295 0.4303,0.0648 0.5474,0.1057 0.0012,0.0421 0.0017,0.0688 0.0017,0.0801 0,0.1251 -0.0289,0.2132 -0.0869,0.2644 -0.0785,0.0693 -0.195,0.104 -0.3496,0.104 -0.1444,0 -0.251,-0.0253 -0.3198,-0.0759 C -6.4537,0.2214 -6.5046,0.1319 -6.5376,0.0034 l -0.3001,0.0409 c 0.0273,0.1285 0.0722,0.2322 0.1347,0.3113 0.0625,0.079 0.1529,0.1398 0.2711,0.1824 0.1183,0.0427 0.2553,0.064 0.411,0.064 0.1546,0 0.2803,-0.0182 0.3769,-0.0546 C -5.5474,0.511 -5.4763,0.4653 -5.4308,0.4101 -5.3854,0.355 -5.3535,0.2854 -5.3353,0.2012 -5.3251,0.1489 -5.32,0.0546 -5.32,-0.0819 v -0.4092 c 0,-0.2854 0.0065,-0.4659 0.0196,-0.5415 0.0131,-0.0756 0.039,-0.1481 0.0776,-0.2174 h -0.3206 c -0.0318,0.0637 -0.0523,0.1381 -0.0614,0.2234 m -0.0256,0.6855 c -0.1114,-0.0454 -0.2785,-0.0841 -0.5013,-0.1159 -0.1262,-0.0182 -0.2155,-0.0387 -0.2678,-0.0614 -0.0523,-0.0228 -0.0926,-0.056 -0.121,-0.0998 -0.0285,-0.0437 -0.0427,-0.0924 -0.0427,-0.1458 0,-0.0818 0.031,-0.1501 0.093,-0.2046 0.0619,-0.0546 0.1526,-0.0819 0.272,-0.0819 0.1182,0 0.2234,0.0259 0.3155,0.0776 0.092,0.0517 0.1597,0.1225 0.2029,0.2123 0.033,0.0694 0.0494,0.1717 0.0494,0.307 z m 1.9705,-0.2455 0.3019,-0.0393 c -0.033,-0.208 -0.1174,-0.3709 -0.2533,-0.4885 -0.1358,-0.1177 -0.3027,-0.1765 -0.5005,-0.1765 -0.2478,0 -0.447,0.081 -0.5977,0.243 -0.1506,0.162 -0.2259,0.3942 -0.2259,0.6966 0,0.1955 0.0324,0.3666 0.0972,0.5133 0.0648,0.1467 0.1634,0.2567 0.2958,0.33 0.1325,0.0733 0.2766,0.11 0.4323,0.11 0.1967,0 0.3576,-0.0498 0.4826,-0.1492 C -3.5024,0.3533 -3.4222,0.212 -3.387,0.029 l -0.2984,-0.0461 c -0.0285,0.1217 -0.0788,0.2132 -0.151,0.2746 -0.0722,0.0614 -0.1594,0.0921 -0.2617,0.0921 -0.1546,0 -0.2803,-0.0554 -0.3769,-0.1663 -0.0966,-0.1108 -0.145,-0.2862 -0.145,-0.5261 0,-0.2433 0.0467,-0.42 0.1399,-0.5303 0.0932,-0.1103 0.2149,-0.1654 0.3649,-0.1654 0.1205,0 0.2211,0.0369 0.3019,0.1108 0.0807,0.0739 0.1318,0.1876 0.1534,0.3411 M -3.0832,-1.25 v 2.5 h 0.3069 v -1.4256 l 0.7265,0.7367 h 0.3973 L -2.3448,-0.1108 -1.5826,-1.25 h -0.3785 l -0.5986,0.926 -0.2166,-0.2081 V -1.25 Z m 1.6987,-0.1501 0.2984,-0.0443 c 0.0125,-0.0921 0.0472,-0.1592 0.104,-0.2012 0.0762,-0.0569 0.1802,-0.0853 0.3121,-0.0853 0.1421,0 0.2518,0.0284 0.3291,0.0853 0.0774,0.0568 0.1296,0.1364 0.1569,0.2387 0.016,0.0625 0.0233,0.1938 0.0222,0.3939 -0.1341,-0.158 -0.3013,-0.237 -0.5014,-0.237 -0.2489,0 -0.4416,0.0898 -0.5781,0.2694 -0.1364,0.1797 -0.2046,0.3951 -0.2046,0.6464 0,0.1728 0.0313,0.3322 0.0938,0.4783 0.0625,0.1461 0.1532,0.2589 0.272,0.3385 0.1188,0.0796 0.2583,0.1194 0.4186,0.1194 0.2138,0 0.39,-0.0864 0.5287,-0.2592 v 0.2183 h 0.2831 v -1.5655 c 0,-0.282 -0.0287,-0.4818 -0.0861,-0.5995 -0.0575,-0.1176 -0.1484,-0.2106 -0.2729,-0.2788 -0.1245,-0.0682 -0.2777,-0.1023 -0.4596,-0.1023 -0.216,0 -0.3905,0.0486 -0.5235,0.1458 -0.133,0.0972 -0.1973,0.2436 -0.1927,0.4391 m 0.2541,1.088 c 0,-0.2376 0.0472,-0.411 0.1415,-0.5201 0.0944,-0.1091 0.2126,-0.1637 0.3547,-0.1637 0.141,0 0.2592,0.0543 0.3547,0.1629 0.0955,0.1085 0.1433,0.2788 0.1433,0.5107 0,0.2217 -0.0492,0.3888 -0.1475,0.5014 -0.0984,0.1125 -0.2169,0.1688 -0.3556,0.1688 -0.1364,0 -0.2524,-0.0554 -0.3479,-0.1663 -0.0955,-0.1108 -0.1432,-0.2754 -0.1432,-0.4937 M 0.6133,-1.25 V 0.5611 H 0.8895 V 0.2865 C 0.96,0.415 1.0251,0.4997 1.0848,0.5406 1.1445,0.5815 1.2101,0.602 1.2818,0.602 1.3852,0.602 1.4904,0.569 1.5972,0.5031 L 1.4915,0.2183 C 1.4165,0.2626 1.3414,0.2848 1.2664,0.2848 1.1993,0.2848 1.1391,0.2646 1.0857,0.2242 1.0322,0.1839 0.9941,0.1279 0.9714,0.0563 0.9373,-0.0529 0.9202,-0.1722 0.9202,-0.3018 V -1.25 Z m 1.0603,0.9055 c 0,0.3354 0.0932,0.5838 0.2796,0.7453 0.1558,0.1341 0.3457,0.2012 0.5696,0.2012 0.249,0 0.4525,-0.0816 0.6105,-0.2447 0.158,-0.1632 0.2371,-0.3886 0.2371,-0.6762 0,-0.2331 -0.035,-0.4164 -0.1049,-0.55 C 3.1956,-1.0024 3.0938,-1.1062 2.9602,-1.1801 2.8266,-1.254 2.6808,-1.2909 2.5228,-1.2909 c -0.2535,0 -0.4584,0.0813 -0.6148,0.2438 -0.1563,0.1626 -0.2344,0.3968 -0.2344,0.7026 m 0.3155,0 c 0,-0.2319 0.0505,-0.4056 0.1517,-0.521 0.1012,-0.1153 0.2285,-0.173 0.382,-0.173 0.1524,0 0.2791,0.0579 0.3803,0.1739 0.1012,0.116 0.1518,0.2927 0.1518,0.5304 0,0.2239 -0.0509,0.3936 -0.1526,0.509 C 2.8005,0.2902 2.674,0.3479 2.5228,0.3479 2.3693,0.3479 2.242,0.2905 2.1408,0.1756 2.0396,0.0608 1.9891,-0.1126 1.9891,-0.3445 M 4.9197,-1.25 v 0.266 C 4.7787,-1.1886 4.5871,-1.2909 4.345,-1.2909 c -0.1069,0 -0.2067,0.0204 -0.2993,0.0614 -0.0927,0.0409 -0.1615,0.0923 -0.2064,0.1543 -0.0449,0.062 -0.0764,0.1378 -0.0946,0.2277 -0.0125,0.0602 -0.0188,0.1557 -0.0188,0.2864 v 1.1222 h 0.307 v -1.0045 c 0,-0.1603 0.0062,-0.2683 0.0187,-0.324 0.0194,-0.0807 0.0603,-0.1441 0.1228,-0.1901 0.0626,-0.0461 0.1399,-0.0691 0.2319,-0.0691 0.0921,0 0.1785,0.0236 0.2593,0.0708 0.0807,0.0471 0.1378,0.1114 0.1713,0.1927 0.0336,0.0813 0.0503,0.1992 0.0503,0.3538 v 0.9704 h 0.307 V -1.25 Z m 0.758,0 V 0.5611 H 5.9539 V 0.3035 c 0.133,0.199 0.3252,0.2985 0.5764,0.2985 0.1092,0 0.2095,-0.0196 0.301,-0.0589 C 6.9228,0.5039 6.9913,0.4525 7.0368,0.3888 7.0823,0.3251 7.1141,0.2495 7.1323,0.162 7.1437,0.1052 7.1494,0.0057 7.1494,-0.1364 V -1.25 h -0.307 v 1.1016 c 0,0.1251 -0.0119,0.2186 -0.0358,0.2806 C 6.7827,0.1941 6.7404,0.2436 6.6795,0.2805 6.6187,0.3175 6.5474,0.3359 6.4655,0.3359 6.3348,0.3359 6.222,0.2945 6.127,0.2115 6.0321,0.1285 5.9846,-0.029 5.9846,-0.2609 V -1.25 Z m 3.1199,0 v 0.2285 C 8.6827,-1.2011 8.5139,-1.2909 8.2911,-1.2909 c -0.1444,0 -0.2771,0.0398 -0.3982,0.1193 -0.1211,0.0796 -0.2149,0.1908 -0.2814,0.3334 -0.0665,0.1427 -0.0998,0.3067 -0.0998,0.492 0,0.1808 0.0302,0.3448 0.0904,0.492 C 7.6624,0.293 7.7528,0.4059 7.8733,0.4843 7.9938,0.5628 8.1285,0.602 8.2774,0.602 8.3866,0.602 8.4838,0.579 8.569,0.5329 8.6543,0.4869 8.7237,0.4269 8.7771,0.353 V 1.25 h 0.3052 v -2.5 z m -0.9704,0.9038 c 0,-0.2319 0.0489,-0.4053 0.1467,-0.5201 0.0978,-0.1148 0.2132,-0.1722 0.3462,-0.1722 0.1341,0 0.2481,0.0548 0.3419,0.1645 0.0938,0.1097 0.1407,0.2771 0.1407,0.5022 0,0.2479 -0.0478,0.4298 -0.1433,0.5457 -0.0955,0.116 -0.2131,0.174 -0.353,0.174 C 8.17,0.3479 8.056,0.2922 7.9645,0.1808 7.873,0.0693 7.8272,-0.1063 7.8272,-0.3462"
           style="fill:#000000;fill-rule:evenodd"
           id="path877" />
      </g>
      <!-- Polyline -->
      <path
         d="M -10,2 H 10 V -2 H -10 Z"
         style="stroke:#000000;stroke-width:0.25"
         id="path881" />
      <!-- Hatch -->
      <g
         id="g927">
        <path
           d="m 16.715,-19.206 2.491,2.491"
           style="stroke:#000000;stroke-width:0.25"
           id="path883" />
        <path
           d="M 10.4309,-21 21,-10.4309"
           style="stroke:#000000;stroke-width:0.25"
           id="path885" />
        <path
           d="M 5.9408,-21 21,-5.9408"
           style="stroke:#000000;stroke-width:0.25"
           id="path887" />
        <path
           d="M 1.4506,-21 21,-1.4506"
           style="stroke:#000000;stroke-width:0.25"
           id="path889" />
        <path
           d="M -3.0395,-21 21,3.0395"
           style="stroke:#000000;stroke-width:0.25"
           id="path891" />
        <path
           d="M -7.5296,-21 21,7.5296"
           style="stroke:#000000;stroke-width:0.25"
           id="path893" />
        <path
           d="M -11.9724,-20.9526 6.9803,-2"
           style="stroke:#000000;stroke-width:0.25"
           id="path895" />
        <path
           d="M 10,1.0197 20.9526,11.9724"
           style="stroke:#000000;stroke-width:0.25"
           id="path897" />
        <path
           d="M -15.4601,-19.9503 2.4901,-2"
           style="stroke:#000000;stroke-width:0.25"
           id="path899" />
        <path
           d="M 6.4901,2 19.9503,15.4601"
           style="stroke:#000000;stroke-width:0.25"
           id="path901" />
        <path
           d="M -18.0711,-18.0711 -2,-2"
           style="stroke:#000000;stroke-width:0.25"
           id="path903" />
        <path
           d="M 2,2 18.0711,18.0711"
           style="stroke:#000000;stroke-width:0.25"
           id="path905-2" />
        <path
           d="M -19.9503,-15.4601 -6.4901,-2"
           style="stroke:#000000;stroke-width:0.25"
           id="path907-8" />
        <path
           d="M -2.4901,2 15.4601,19.9503"
           style="stroke:#000000;stroke-width:0.25"
           id="path909" />
        <path
           d="M -20.9526,-11.9724 -10,-1.0197"
           style="stroke:#000000;stroke-width:0.25"
           id="path911" />
        <path
           d="M -6.9803,2 11.9724,20.9526"
           style="stroke:#000000;stroke-width:0.25"
           id="path913" />
        <path
           d="M -21,-7.5296 7.5296,21"
           style="stroke:#000000;stroke-width:0.25"
           id="path915" />
        <path
           d="M -21,-3.0395 3.0395,21"
           style="stroke:#000000;stroke-width:0.25"
           id="path917" />
        <path
           d="M -21,1.4506 -1.4506,21"
           style="stroke:#000000;stroke-width:0.25"
           id="path919" />
        <path
           d="M -21,5.9408 -5.9408,21"
           style="stroke:#000000;stroke-width:0.25"
           id="path921" />
        <path
           d="M -21,10.4309 -10.4309,21"
           style="stroke:#000000;stroke-width:0.25"
           id="path923" />
        <path
           d="m -19.206,16.715 2.491,2.491"
           style="stroke:#000000;stroke-width:0.25"
           id="path925" />
      </g>
    </g>
  </g>
  <g
     inkscape:groupmode="layer"
     id="layer2"
     inkscape:label="bg"
     style="display:inline">
    <rect
       style="display:inline;fill:#000000"
       id="rect846"
       width="158.74016"
       height="158.74016"
       x="40"
       y="40"
       rx="37.795277" />
    <rect
       style="display:inline;fill:#000000"
       id="rect16447"
       width="158.74016"
       height="158.74016"
       x="218.74016"
       y="40"
       rx="37.795277" />
    <rect
       style="display:inline;fill:#000000"
       id="rect16449"
       width="158.74016"
       height="158.74016"
       x="397.48032"
       y="40"
       rx="37.795277" />
    <rect
       style="display:inline;fill:#000000"
       id="rect963"
       width="158.74016"
       height="158.74016"
       x="576.22046"
       y="40"
       rx="37.795277" />
    <rect
       style="display:inline;fill:#000000"
       id="rect6884"
       width="158.74016"
       height="158.74016"
       x="40"
       y="218.74016"
       rx="37.795277" />
    <rect
       style="display:inline;fill:#000000"
       id="rect22659"
       width="158.74016"
       height="158.74016"
       x="220"
       y="218.74016"
       rx="37.795277" />
    <rect
       style="display:inline;fill:#000000"
       id="rect21794"
       width="158.74016"
       height="158.74016"
       x="400"
       y="218.74016"
       rx="37.795277" />
    <rect
       style="display:inline;fill:#000000"
       id="rect22182"
       width="158.74016"
       height="158.74016"
       x="580"
       y="218.74016"
       rx="37.795277" />
    <rect
       style="display:inline;fill:#000000"
       id="rect21543"
       width="158.74016"
       height="158.74016"
       x="40"
       y="398.74017"
       rx="37.795277" />
  </g>
  <g
     inkscape:groupmode="layer"
     id="layer3"
     inkscape:label="green"
     style="display:inline">
    <path
       id="rect984"
       style="fill:#b7fc68;fill-opacity:1"
       d="m 88.032185,100.47258 c -4.18771,0 -7.55859,3.37088 -7.55859,7.55859 v 3.7793 h -3.78125 c -2.09386,0 -3.7793,1.68544 -3.7793,3.7793 0,2.09386 1.68544,3.78125 3.7793,3.78125 h 3.78125 v 11.33789 c 0,4.18772 3.37088,7.55858 7.55859,7.55858 h 3.7793 c 4.18772,0 7.55859,-3.37086 7.55859,-7.55858 v -15.11914 -7.5586 c 0,-4.18771 -3.37087,-7.55859 -7.55859,-7.55859 z" />
    <use
       x="0"
       y="0"
       xlink:href="#rect984"
       id="use10933"
       transform="matrix(-1,0,0,1,238.74016,1e-6)"
       width="100%"
       height="100%" />
    <path
       style="color:#000000;fill:#b7fc68;stroke-linecap:round;-inkscape-stroke:none"
       d="m 101.25977,149.65234 a 3.77953,3.77953 0 0 0 -3.140629,4.32618 c 0.792715,4.99319 4.023239,8.84726 7.964839,11.16796 3.94161,2.32071 8.62202,3.35743 13.28516,3.35743 4.66314,0 9.34551,-1.03672 13.28711,-3.35743 3.9416,-2.3207 7.17213,-6.17477 7.96484,-11.16796 a 3.77953,3.77953 0 0 0 -3.14062,-4.32618 3.77953,3.77953 0 0 0 -4.32422,3.14063 c -0.40735,2.56585 -1.85821,4.38103 -4.33594,5.83984 -2.47772,1.45882 -5.95522,2.3125 -9.45117,2.3125 -3.49594,0 -6.97344,-0.85368 -9.45117,-2.3125 -2.47773,-1.45881 -3.92663,-3.27399 -4.33399,-5.83984 a 3.77953,3.77953 0 0 0 -4.32421,-3.14063 z"
       id="path10970" />
  </g>
  <g
     inkscape:groupmode="layer"
     id="layer1"
     inkscape:label="red"
     style="display:inline">
    <path
       id="path1417"
       style="color:#000000;display:inline;fill:#ff4a4a;stroke-width:18.8976;stroke-linecap:round;stroke-linejoin:round;-inkscape-stroke:none"
       d="m 476.19141,75.226562 a 9.4497448,9.4497448 0 0 0 -2.57227,0.546876 9.4497448,9.4497448 0 0 0 -4.95117,4.154296 l -40.08789,69.435546 a 9.4497448,9.4497448 0 0 0 8.18164,14.17188 h 80.17578 a 9.4497448,9.4497448 0 0 0 8.18359,-14.17188 L 485.0332,79.927734 a 9.4497448,9.4497448 0 0 0 -8.84179,-4.701172 z m 0.6582,14.216797 c 2.14591,0 4.27828,1.027802 5.66601,2.664063 1.57,1.817842 2.13477,4.222204 2.13477,6.851562 0,0.914802 -0.0841,1.972426 -0.23633,3.255856 l -0.002,0.0234 -3.9082,35.5254 -0.2793,2.52538 h -6.75195 l -4.14063,-38.15625 c -0.18049,-1.59431 -0.28125,-2.685109 -0.28125,-3.570307 0,-2.428279 0.63694,-4.736651 2.14453,-6.472656 1.40363,-1.616308 3.5134,-2.646485 5.6543,-2.646485 z m -0.043,52.470701 c 1.99643,0 3.99347,0.81606 5.41016,2.22266 1.44607,1.4095 2.30273,3.42792 2.30273,5.44726 0,2.02551 -0.84878,4.04215 -2.28125,5.47461 -1.41772,1.41772 -3.42668,2.23829 -5.43164,2.23829 -1.99027,-10e-6 -3.97131,-0.82127 -5.40039,-2.20704 l -0.0312,-0.0293 -0.0312,-0.0312 c -1.39573,-1.43935 -2.20508,-3.44035 -2.20508,-5.44532 0,-2.00496 0.81861,-4.01587 2.23633,-5.43359 l 0.0156,-0.0137 0.0156,-0.0156 c 1.42908,-1.38576 3.41012,-2.20703 5.40039,-2.20703 z" />
    <path
       id="path16526"
       style="color:#000000;fill:#ff4a4a;-inkscape-stroke:none"
       d="m 264.70312,72.601562 -13.36132,13.361329 33.4082,33.408199 -33.4082,33.40625 13.36132,13.36133 33.40626,-33.4082 33.4082,33.4082 13.36133,-13.36133 -33.40625,-33.40625 33.40625,-33.408199 -13.36133,-13.361329 -33.4082,33.406248 z" />
  </g>
  <g
     inkscape:groupmode="layer"
     id="layer4"
     inkscape:label="yellow"
     style="display:inline">
    <g
       id="g973"
       transform="translate(46.317368,32.184192)">
      <g
         id="g967">
        <path
           style="color:#000000;display:inline;fill:#ffff00;stroke:none;stroke-width:7.55906;stroke-linecap:round;stroke-linejoin:round;stroke-miterlimit:4;stroke-dasharray:none"
           d="m 609.2292,109.73055 c 1.99643,0 3.99347,0.81606 5.41016,2.22266 1.44607,1.4095 2.30273,3.42792 2.30273,5.44726 0,2.02551 -0.84878,4.04215 -2.28125,5.47461 -1.41772,1.41772 -3.42668,2.23829 -5.43164,2.23829 -1.99027,-1e-5 -3.97131,-0.82127 -5.40039,-2.20704 l -0.0312,-0.0293 -0.0312,-0.0312 c -1.39573,-1.43935 -2.20508,-3.44035 -2.20508,-5.44532 0,-2.00496 0.81861,-4.01587 2.23633,-5.43359 l 0.0156,-0.0137 0.0156,-0.0156 c 1.42908,-1.38576 3.41012,-2.20703 5.40039,-2.20703 z"
           id="path907" />
        <path
           style="color:#000000;display:inline;fill:#ffff00;stroke:none;stroke-width:7.55906;stroke-linecap:round;stroke-linejoin:round;stroke-miterlimit:4;stroke-dasharray:none"
           d="m 609.2722,57.25985 c 2.14591,0 4.27828,1.027802 5.66601,2.664063 1.57,1.817842 2.13477,4.222204 2.13477,6.851562 0,0.914802 -0.0841,1.972426 -0.23633,3.25586 l -0.002,0.02344 -3.9082,35.525395 -0.2793,2.52538 h -6.75195 l -4.14063,-38.156244 c -0.18049,-1.594311 -0.28125,-2.685114 -0.28125,-3.570312 0,-2.428279 0.63694,-4.736651 2.14453,-6.472656 1.40363,-1.616308 3.5134,-2.646485 5.6543,-2.646485 z"
           id="path905" />
      </g>
      <path
         style="color:#000000;display:inline;fill:none;stroke:#ffff00;stroke-width:7.55906;stroke-linecap:round;stroke-linejoin:round;stroke-miterlimit:4;stroke-dasharray:none"
         d="m 608.614,43.043053 a 9.4497448,9.4497448 0 0 0 -2.57227,0.546876 9.4497448,9.4497448 0 0 0 -4.95117,4.154296 l -40.08789,69.435545 a 9.4497448,9.4497448 0 0 0 8.18164,14.17188 h 80.17578 a 9.4497448,9.4497448 0 0 0 8.18359,-14.17188 L 617.45579,47.744225 A 9.4497448,9.4497448 0 0 0 608.614,43.043053 Z"
         id="path865" />
    </g>
    <path
       id="path23506"
       style="display:inline;fill:#ffff00;stroke:none;stroke-width:2.5;stroke-linecap:butt;stroke-linejoin:round;stroke-miterlimit:4;stroke-dasharray:none"
       d="m 299.36914,278.10938 c -2.47366,-10e-6 -2.31162,7.71946 -3.0918,12.46484 -0.96313,-2.56554 -2.73683,-5.36379 -3.84765,-6.47461 -1.95262,-1.95262 -5.1177,-1.95262 -7.07031,0 -1.95263,1.95262 -1.95262,5.11769 0,7.07031 1.11082,1.11082 3.90907,2.88452 6.4746,3.84766 -4.74537,0.78018 -12.46484,0.61814 -12.46484,3.0918 0,2.47365 7.71947,2.31357 12.46484,3.09374 -2.56553,0.96314 -5.36378,2.73489 -6.4746,3.84571 -1.95263,1.95262 -1.95263,5.11963 0,7.07226 1.95262,1.95262 5.11769,1.95262 7.07031,0 1.11102,-1.11102 2.88464,-3.91065 3.84765,-6.47656 0.78055,4.74521 0.6178,12.46484 3.0918,12.46485 2.474,0 2.3132,-7.71964 3.09375,-12.46485 0.96302,2.56591 2.73468,5.36554 3.8457,6.47656 1.95262,1.95262 5.11965,1.95262 7.07227,0 1.95262,-1.95262 1.95262,-5.11964 0,-7.07226 -1.11082,-1.11082 -3.90907,-2.88257 -6.47461,-3.84571 4.74538,-0.78018 12.46289,-0.62009 12.46289,-3.09374 0,-2.47366 -7.71751,-2.31162 -12.46289,-3.0918 2.56554,-0.96314 5.36379,-2.73684 6.47461,-3.84766 1.95262,-1.95262 1.95263,-5.11768 0,-7.07031 -1.95262,-1.95262 -5.11965,-1.95262 -7.07227,0 -1.11082,1.11082 -2.88256,3.90907 -3.8457,6.47461 -0.78018,-4.74538 -0.62009,-12.46484 -3.09375,-12.46484 z" />
  </g>
  <g
     inkscape:groupmode="layer"
     id="layer6"
     inkscape:label="purple">
    <path
       id="circle21712"
       style="display:inline;fill:#800080;stroke:none;stroke-width:2.5;stroke-linecap:butt;stroke-linejoin:round;stroke-miterlimit:4;stroke-dasharray:none"
       inkscape:transform-center-x="-40"
       inkscape:transform-center-y="-1.1e-05"
       d="m 119.37109,438.10938 a 6,6 0 0 0 -6,6 6,6 0 0 0 6,6 6,6 0 0 0 6,-6 6,6 0 0 0 -6,-6 z M 90.6582,449.8418 a 6,6 0 0 0 -3.81445,1.74218 6,6 0 0 0 0,8.48438 6,6 0 0 0 8.48437,0 6,6 0 0 0 0,-8.48438 6,6 0 0 0 -4.66992,-1.74218 z m 56.56836,0 a 6,6 0 0 0 -3.81445,1.74218 6,6 0 0 0 0,8.48438 6,6 0 0 0 8.48437,0 6,6 0 0 0 0,-8.48438 6,6 0 0 0 -4.66992,-1.74218 z m -67.85742,28.26758 a 6,6 0 0 0 -6,6 6,6 0 0 0 6,6 6,6 0 0 0 6,-6 6,6 0 0 0 -6,-6 z m 80,0 a 6,6 0 0 0 -6,6 6,6 0 0 0 6,6 6,6 0 0 0 6,-6 6,6 0 0 0 -6,-6 z M 90.6582,506.41016 a 6,6 0 0 0 -3.81445,1.74218 6,6 0 0 0 0,8.48438 6,6 0 0 0 8.48437,0 6,6 0 0 0 0,-8.48438 6,6 0 0 0 -4.66992,-1.74218 z m 56.56836,0 a 6,6 0 0 0 -3.81445,1.74218 6,6 0 0 0 0,8.48438 6,6 0 0 0 8.48437,0 6,6 0 0 0 0,-8.48438 6,6 0 0 0 -4.66992,-1.74218 z m -27.85742,11.69922 a 6,6 0 0 0 -6,6 6,6 0 0 0 6,6 6,6 0 0 0 6,-6 6,6 0 0 0 -6,-6 z" />
    <path
       id="path22242"
       style="display:inline;fill:#ff00ff;stroke-width:2.5;stroke-linejoin:round"
       inkscape:transform-center-y="-38.00001"
       d="m 659.36914,252.10938 c -3.31371,0 -6,2.68629 -6,6 0,3.31371 2.68629,10 6,10 3.31371,-10e-6 6,-6.6863 6,-10 0,-3.31371 -2.68629,-6 -6,-6 z m -28.2832,11.71679 c -1.53554,0 -3.07061,0.58624 -4.24219,1.75781 -2.34315,2.34315 -2.34315,6.14124 0,8.48438 2.34315,2.34315 8.96935,5.17127 11.3125,2.82812 2.34315,-2.34315 -0.48497,-8.96935 -2.82813,-11.3125 -1.17156,-1.17157 -2.70665,-1.75781 -4.24218,-1.75781 z m 56.56836,0 c -1.53554,0 -3.07062,0.58624 -4.24219,1.75781 -2.34315,2.34315 -5.17128,8.96935 -2.82813,11.3125 2.34315,2.34315 8.96935,-0.48497 11.3125,-2.82812 2.34315,-2.34314 2.34315,-6.14123 0,-8.48438 -1.17157,-1.17157 -2.70665,-1.75781 -4.24218,-1.75781 z m -68.28516,28.28321 c -3.31371,0 -6,2.68629 -6,6 0,3.31371 2.68629,6 6,6 3.31371,0 10,-2.68629 10,-6 0,-3.31371 -6.68629,-6 -10,-6 z m 80,0 c -3.31371,0 -10,2.68629 -10,6 0,3.31371 6.68629,6 10,6 3.31371,0 6,-2.68629 6,-6 0,-3.31371 -2.68629,-6 -6,-6 z m -64.01562,26.33789 c -2.9291,0.0851 -6.82563,2.02093 -8.50977,3.70507 -2.34315,2.34314 -2.34315,6.14123 0,8.48438 2.34315,2.34315 6.14124,2.34315 8.48437,0 2.34316,-2.34315 5.17128,-8.96935 2.82813,-11.3125 -0.65901,-0.65901 -1.65657,-0.91025 -2.80273,-0.87695 z m 47.65625,0 c -0.98744,0.0277 -1.84,0.29116 -2.42579,0.87695 -2.34315,2.34315 0.48498,8.96935 2.82813,11.3125 2.34314,2.34315 6.14122,2.34315 8.48437,0 2.34315,-2.34315 2.34315,-6.14124 0,-8.48438 -1.75736,-1.75736 -5.9244,-3.78826 -8.88671,-3.70507 z m -23.64063,9.66211 c -3.31371,0 -6,6.68628 -6,10 0,3.31371 2.68629,6 6,6 3.31371,0 6,-2.68629 6,-6 0,-3.31372 -2.68629,-10 -6,-10 z" />
    <path
       id="path25002"
       style="color:#000000;display:inline;fill:#ff00ff;stroke-width:1;stroke-linecap:round;-inkscape-stroke:none"
       d="m 85.919922,269.76367 c -4.663137,0 -9.343553,1.03671 -13.285156,3.35742 -3.941602,2.3207 -7.172129,6.17478 -7.964844,11.16797 a 3.77953,3.77953 0 0 0 3.140625,4.32617 3.77953,3.77953 0 0 0 4.324219,-3.14062 c 0.407354,-2.56585 1.856258,-4.38103 4.333984,-5.83984 2.477726,-1.45882 5.955226,-2.3125 9.451172,-2.3125 3.495945,0 6.973447,0.85368 9.451172,2.3125 2.477726,1.45881 3.928585,3.27399 4.335937,5.83984 a 3.77953,3.77953 0 0 0 4.324219,3.14062 3.77953,3.77953 0 0 0 3.14063,-4.32617 c -0.79271,-4.99319 -4.02325,-8.84727 -7.964849,-11.16797 -3.941602,-2.32071 -8.623973,-3.35742 -13.287109,-3.35742 z m 66.896488,0 c -4.66314,0 -9.34355,1.03671 -13.28516,3.35742 -3.9416,2.3207 -7.17213,6.17478 -7.96484,11.16797 a 3.77953,3.77953 0 0 0 3.14062,4.32617 3.77953,3.77953 0 0 0 4.32422,-3.14062 c 0.40735,-2.56585 1.85625,-4.38103 4.33398,-5.83984 2.47772,-1.45882 5.95523,-2.3125 9.45118,-2.3125 3.49595,0 6.97345,0.85368 9.45117,2.3125 2.47773,1.45881 3.92859,3.27399 4.33594,5.83984 a 3.77953,3.77953 0 0 0 4.32421,3.14062 3.77953,3.77953 0 0 0 3.14063,-4.32617 c -0.79271,-4.99319 -4.02324,-8.84727 -7.96484,-11.16797 -3.9416,-2.32071 -8.62397,-3.35742 -13.28711,-3.35742 z m -56.324222,35.61719 v 8.07812 c 0,2.93621 0.28577,5.29948 0.859374,7.08985 0.573606,1.80468 1.506262,3.43751 2.796878,4.89844 1.86422,2.10548 4.48896,3.78839 7.86914,5.04882 3.38017,1.27473 7.148,1.91211 11.30664,1.91211 4.44544,0 8.28666,-0.60872 11.52344,-1.82617 3.23677,-1.21745 5.82727,-2.91472 7.77343,-5.0918 1.12673,-1.27474 2.00752,-2.83593 2.64258,-4.68359 0.65555,-1.83334 0.98438,-4.3112 0.98438,-7.43359 v -7.99219 z m 6.830082,5.0957 h 32.09765 v 3.63282 c 0,1.79687 -0.18807,3.33984 -0.56054,4.6289 -0.35385,1.28906 -0.99461,2.50652 -1.92579,3.65234 -1.28502,1.57554 -3.04642,2.76042 -5.28125,3.55469 -2.23482,0.79427 -4.98111,1.19141 -8.24023,1.19141 -3.2405,0 -5.94123,-0.36458 -8.10156,-1.09375 -2.16034,-0.71615 -3.90234,-1.79687 -5.22461,-3.24219 -1.06155,-1.15885 -1.78664,-2.43489 -2.17774,-3.82812 -0.39109,-1.38021 -0.58593,-3.0013 -0.58593,-4.86328 z" />
  </g>
  <g
     inkscape:groupmode="layer"
     id="layer5"
     inkscape:label="orange">
    <path
       id="path21630"
       style="display:inline;fill:#ff6600;stroke:none;stroke-width:2.5;stroke-linecap:butt;stroke-linejoin:round;stroke-miterlimit:4;stroke-dasharray:none"
       inkscape:transform-center-y="-26.000011"
       d="m 479.36914,260.10938 a 6,6 0 0 0 -6,6 6,6 0 0 0 6,6 6,6 0 0 0 6,-6 6,6 0 0 0 -6,-6 z m -18.8125,7.63085 a 6,6 0 0 0 -3.81445,1.74219 6,6 0 0 0 0,8.48633 6,6 0 0 0 8.48633,0 6,6 0 0 0 0,-8.48633 6,6 0 0 0 -4.67188,-1.74219 z m 36.76953,0 a 6,6 0 0 0 -3.81445,1.74219 6,6 0 0 0 0,8.48633 6,6 0 0 0 8.48633,0 6,6 0 0 0 0,-8.48633 6,6 0 0 0 -4.67188,-1.74219 z m -43.95703,18.36915 a 6,6 0 0 0 -6,6 6,6 0 0 0 6,6 6,6 0 0 0 6,-6 6,6 0 0 0 -6,-6 z m 52.00195,0 a 6,6 0 0 0 -6,6 6,6 0 0 0 6,6 6,6 0 0 0 6,-6 6,6 0 0 0 -6,-6 z m -44.81445,18.40039 a 6,6 0 0 0 -3.81445,1.74218 6,6 0 0 0 0,8.48633 6,6 0 0 0 8.48633,0 6,6 0 0 0 0,-8.48633 6,6 0 0 0 -4.67188,-1.74218 z m 36.76953,0 a 6,6 0 0 0 -3.81445,1.74218 6,6 0 0 0 0,8.48633 6,6 0 0 0 8.48633,0 6,6 0 0 0 0,-8.48633 6,6 0 0 0 -4.67188,-1.74218 z m -17.95703,7.59961 a 6,6 0 0 0 -6,6 6,6 0 0 0 6,6 6,6 0 0 0 6,-6 6,6 0 0 0 -6,-6 z" />
  </g>
</svg>
