<?xml version="1.0" encoding="UTF-8" standalone="no"?>
<!-- Created with Inkscape (http://www.inkscape.org/) -->

<svg
   width="8.5in"
   height="11in"
   viewBox="0 0 816 1056"
   version="1.1"
   id="svg5"
   inkscape:version="1.2.2 (732a01da63, 2022-12-09)"
   sodipodi:docname="lise-face.svg"
   xmlns:inkscape="http://www.inkscape.org/namespaces/inkscape"
   xmlns:sodipodi="http://sodipodi.sourceforge.net/DTD/sodipodi-0.dtd"
   xmlns:xlink="http://www.w3.org/1999/xlink"
   xmlns="http://www.w3.org/2000/svg"
   xmlns:svg="http://www.w3.org/2000/svg">
  <sodipodi:namedview
     id="namedview7"
     pagecolor="#ffffff"
     bordercolor="#666666"
     borderopacity="1.0"
     inkscape:pageshadow="2"
     inkscape:pageopacity="0.0"
     inkscape:pagecheckerboard="0"
     inkscape:document-units="mm"
     showgrid="false"
     units="in"
     inkscape:snap-smooth-nodes="false"
     inkscape:snap-midpoints="true"
     showguides="false"
     inkscape:guide-bbox="true"
     inkscape:snap-bbox="true"
     inkscape:bbox-nodes="true"
     inkscape:snap-page="true"
     inkscape:zoom="0.76893945"
     inkscape:cx="299.11328"
     inkscape:cy="343.98027"
     inkscape:window-width="1920"
     inkscape:window-height="1001"
     inkscape:window-x="-9"
     inkscape:window-y="-9"
     inkscape:window-maximized="1"
     inkscape:current-layer="layer5"
     inkscape:object-paths="false"
     inkscape:snap-center="true"
     inkscape:snap-bbox-midpoints="true"
     inkscape:snap-intersection-paths="false"
     inkscape:showpageshadow="2"
     inkscape:deskcolor="#d1d1d1">
    <inkscape:grid
       type="xygrid"
       id="grid15711"
       empspacing="10"
       units="mm"
       spacingx="3.7795276"
       spacingy="3.7795276" />
    <sodipodi:guide
       position="259.37008,797.88976"
       orientation="1,0"
       id="guide22727"
       inkscape:locked="false" />
    <sodipodi:guide
       position="259.37008,797.88976"
       orientation="0,-1"
       id="guide22729"
       inkscape:locked="false" />
    <sodipodi:guide
       position="279.37009,777.88976"
       orientation="0,-1"
       id="guide23322"
       inkscape:locked="false" />
  </sodipodi:namedview>
  <defs
     id="defs2" />
  <g
     inkscape:groupmode="layer"
     id="layer2"
     inkscape:label="bg"
     style="display:inline">
    <rect
       style="display:inline;fill:#000000"
       id="rect846"
       width="158.74016"
       height="158.74016"
       x="40"
       y="40"
       rx="37.795277" />
    <rect
       style="display:inline;fill:#000000"
       id="rect16447"
       width="158.74016"
       height="158.74016"
       x="218.74016"
       y="40"
       rx="37.795277" />
    <rect
       style="display:inline;fill:#000000"
       id="rect16449"
       width="158.74016"
       height="158.74016"
       x="397.48032"
       y="40"
       rx="37.795277" />
    <rect
       style="display:inline;fill:#000000"
       id="rect963"
       width="158.74016"
       height="158.74016"
       x="576.22046"
       y="40"
       rx="37.795277" />
    <rect
       style="display:inline;fill:#000000"
       id="rect6884"
       width="158.74016"
       height="158.74016"
       x="40"
       y="218.74016"
       rx="37.795277" />
    <rect
       style="display:inline;fill:#000000"
       id="rect22659"
       width="158.74016"
       height="158.74016"
       x="220"
       y="218.74016"
       rx="37.795277" />
    <rect
       style="display:inline;fill:#000000"
       id="rect21794"
       width="158.74016"
       height="158.74016"
       x="400"
       y="218.74016"
       rx="37.795277" />
    <rect
       style="display:inline;fill:#000000"
       id="rect22182"
       width="158.74016"
       height="158.74016"
       x="580"
       y="218.74016"
       rx="37.795277" />
    <rect
       style="display:inline;fill:#000000"
       id="rect21543"
       width="158.74016"
       height="158.74016"
       x="40"
       y="398.74017"
       rx="37.795277" />
  </g>
  <g
     inkscape:groupmode="layer"
     id="layer3"
     inkscape:label="green"
     style="display:inline">
    <path
       id="rect984"
       style="fill:#b7fc68;fill-opacity:1"
       d="m 88.032185,100.47258 c -4.18771,0 -7.55859,3.37088 -7.55859,7.55859 v 3.7793 h -3.78125 c -2.09386,0 -3.7793,1.68544 -3.7793,3.7793 0,2.09386 1.68544,3.78125 3.7793,3.78125 h 3.78125 v 11.33789 c 0,4.18772 3.37088,7.55858 7.55859,7.55858 h 3.7793 c 4.18772,0 7.55859,-3.37086 7.55859,-7.55858 v -15.11914 -7.5586 c 0,-4.18771 -3.37087,-7.55859 -7.55859,-7.55859 z" />
    <use
       x="0"
       y="0"
       xlink:href="#rect984"
       id="use10933"
       transform="matrix(-1,0,0,1,238.74016,1e-6)"
       width="100%"
       height="100%" />
    <path
       style="color:#000000;fill:#b7fc68;stroke-linecap:round;-inkscape-stroke:none"
       d="m 101.25977,149.65234 a 3.77953,3.77953 0 0 0 -3.140629,4.32618 c 0.792715,4.99319 4.023239,8.84726 7.964839,11.16796 3.94161,2.32071 8.62202,3.35743 13.28516,3.35743 4.66314,0 9.34551,-1.03672 13.28711,-3.35743 3.9416,-2.3207 7.17213,-6.17477 7.96484,-11.16796 a 3.77953,3.77953 0 0 0 -3.14062,-4.32618 3.77953,3.77953 0 0 0 -4.32422,3.14063 c -0.40735,2.56585 -1.85821,4.38103 -4.33594,5.83984 -2.47772,1.45882 -5.95522,2.3125 -9.45117,2.3125 -3.49594,0 -6.97344,-0.85368 -9.45117,-2.3125 -2.47773,-1.45881 -3.92663,-3.27399 -4.33399,-5.83984 a 3.77953,3.77953 0 0 0 -4.32421,-3.14063 z"
       id="path10970" />
  </g>
  <g
     inkscape:groupmode="layer"
     id="layer1"
     inkscape:label="red"
     style="display:inline">
    <path
       id="path1417"
       style="color:#000000;display:inline;fill:#ff4a4a;stroke-width:18.8976;stroke-linecap:round;stroke-linejoin:round;-inkscape-stroke:none"
       d="m 476.19141,75.226562 a 9.4497448,9.4497448 0 0 0 -2.57227,0.546876 9.4497448,9.4497448 0 0 0 -4.95117,4.154296 l -40.08789,69.435546 a 9.4497448,9.4497448 0 0 0 8.18164,14.17188 h 80.17578 a 9.4497448,9.4497448 0 0 0 8.18359,-14.17188 L 485.0332,79.927734 a 9.4497448,9.4497448 0 0 0 -8.84179,-4.701172 z m 0.6582,14.216797 c 2.14591,0 4.27828,1.027802 5.66601,2.664063 1.57,1.817842 2.13477,4.222204 2.13477,6.851562 0,0.914802 -0.0841,1.972426 -0.23633,3.255856 l -0.002,0.0234 -3.9082,35.5254 -0.2793,2.52538 h -6.75195 l -4.14063,-38.15625 c -0.18049,-1.59431 -0.28125,-2.685109 -0.28125,-3.570307 0,-2.428279 0.63694,-4.736651 2.14453,-6.472656 1.40363,-1.616308 3.5134,-2.646485 5.6543,-2.646485 z m -0.043,52.470701 c 1.99643,0 3.99347,0.81606 5.41016,2.22266 1.44607,1.4095 2.30273,3.42792 2.30273,5.44726 0,2.02551 -0.84878,4.04215 -2.28125,5.47461 -1.41772,1.41772 -3.42668,2.23829 -5.43164,2.23829 -1.99027,-10e-6 -3.97131,-0.82127 -5.40039,-2.20704 l -0.0312,-0.0293 -0.0312,-0.0312 c -1.39573,-1.43935 -2.20508,-3.44035 -2.20508,-5.44532 0,-2.00496 0.81861,-4.01587 2.23633,-5.43359 l 0.0156,-0.0137 0.0156,-0.0156 c 1.42908,-1.38576 3.41012,-2.20703 5.40039,-2.20703 z" />
    <path
       id="path16526"
       style="color:#000000;fill:#ff4a4a;-inkscape-stroke:none"
       d="m 264.70312,72.601562 -13.36132,13.361329 33.4082,33.408199 -33.4082,33.40625 13.36132,13.36133 33.40626,-33.4082 33.4082,33.4082 13.36133,-13.36133 -33.40625,-33.40625 33.40625,-33.408199 -13.36133,-13.361329 -33.4082,33.406248 z" />
  </g>
  <g
     inkscape:groupmode="layer"
     id="layer4"
     inkscape:label="yellow"
     style="display:inline">
    <g
       id="g973"
       transform="translate(46.317368,32.184192)">
      <g
         id="g967">
        <path
           style="color:#000000;display:inline;fill:#ffff00;stroke:none;stroke-width:7.55906;stroke-linecap:round;stroke-linejoin:round;stroke-miterlimit:4;stroke-dasharray:none"
           d="m 609.2292,109.73055 c 1.99643,0 3.99347,0.81606 5.41016,2.22266 1.44607,1.4095 2.30273,3.42792 2.30273,5.44726 0,2.02551 -0.84878,4.04215 -2.28125,5.47461 -1.41772,1.41772 -3.42668,2.23829 -5.43164,2.23829 -1.99027,-1e-5 -3.97131,-0.82127 -5.40039,-2.20704 l -0.0312,-0.0293 -0.0312,-0.0312 c -1.39573,-1.43935 -2.20508,-3.44035 -2.20508,-5.44532 0,-2.00496 0.81861,-4.01587 2.23633,-5.43359 l 0.0156,-0.0137 0.0156,-0.0156 c 1.42908,-1.38576 3.41012,-2.20703 5.40039,-2.20703 z"
           id="path907" />
        <path
           style="color:#000000;display:inline;fill:#ffff00;stroke:none;stroke-width:7.55906;stroke-linecap:round;stroke-linejoin:round;stroke-miterlimit:4;stroke-dasharray:none"
           d="m 609.2722,57.25985 c 2.14591,0 4.27828,1.027802 5.66601,2.664063 1.57,1.817842 2.13477,4.222204 2.13477,6.851562 0,0.914802 -0.0841,1.972426 -0.23633,3.25586 l -0.002,0.02344 -3.9082,35.525395 -0.2793,2.52538 h -6.75195 l -4.14063,-38.156244 c -0.18049,-1.594311 -0.28125,-2.685114 -0.28125,-3.570312 0,-2.428279 0.63694,-4.736651 2.14453,-6.472656 1.40363,-1.616308 3.5134,-2.646485 5.6543,-2.646485 z"
           id="path905" />
      </g>
      <path
         style="color:#000000;display:inline;fill:none;stroke:#ffff00;stroke-width:7.55906;stroke-linecap:round;stroke-linejoin:round;stroke-miterlimit:4;stroke-dasharray:none"
         d="m 608.614,43.043053 a 9.4497448,9.4497448 0 0 0 -2.57227,0.546876 9.4497448,9.4497448 0 0 0 -4.95117,4.154296 l -40.08789,69.435545 a 9.4497448,9.4497448 0 0 0 8.18164,14.17188 h 80.17578 a 9.4497448,9.4497448 0 0 0 8.18359,-14.17188 L 617.45579,47.744225 A 9.4497448,9.4497448 0 0 0 608.614,43.043053 Z"
         id="path865" />
    </g>
    <path
       id="path23506"
       style="display:inline;fill:#ffff00;stroke:none;stroke-width:2.5;stroke-linecap:butt;stroke-linejoin:round;stroke-miterlimit:4;stroke-dasharray:none"
       d="m 299.36914,278.10938 c -2.47366,-10e-6 -2.31162,7.71946 -3.0918,12.46484 -0.96313,-2.56554 -2.73683,-5.36379 -3.84765,-6.47461 -1.95262,-1.95262 -5.1177,-1.95262 -7.07031,0 -1.95263,1.95262 -1.95262,5.11769 0,7.07031 1.11082,1.11082 3.90907,2.88452 6.4746,3.84766 -4.74537,0.78018 -12.46484,0.61814 -12.46484,3.0918 0,2.47365 7.71947,2.31357 12.46484,3.09374 -2.56553,0.96314 -5.36378,2.73489 -6.4746,3.84571 -1.95263,1.95262 -1.95263,5.11963 0,7.07226 1.95262,1.95262 5.11769,1.95262 7.07031,0 1.11102,-1.11102 2.88464,-3.91065 3.84765,-6.47656 0.78055,4.74521 0.6178,12.46484 3.0918,12.46485 2.474,0 2.3132,-7.71964 3.09375,-12.46485 0.96302,2.56591 2.73468,5.36554 3.8457,6.47656 1.95262,1.95262 5.11965,1.95262 7.07227,0 1.95262,-1.95262 1.95262,-5.11964 0,-7.07226 -1.11082,-1.11082 -3.90907,-2.88257 -6.47461,-3.84571 4.74538,-0.78018 12.46289,-0.62009 12.46289,-3.09374 0,-2.47366 -7.71751,-2.31162 -12.46289,-3.0918 2.56554,-0.96314 5.36379,-2.73684 6.47461,-3.84766 1.95262,-1.95262 1.95263,-5.11768 0,-7.07031 -1.95262,-1.95262 -5.11965,-1.95262 -7.07227,0 -1.11082,1.11082 -2.88256,3.90907 -3.8457,6.47461 -0.78018,-4.74538 -0.62009,-12.46484 -3.09375,-12.46484 z" />
  </g>
  <g
     inkscape:groupmode="layer"
     id="layer6"
     inkscape:label="purple">
    <path
       id="circle21712"
       style="display:inline;fill:#800080;stroke:none;stroke-width:2.5;stroke-linecap:butt;stroke-linejoin:round;stroke-miterlimit:4;stroke-dasharray:none"
       inkscape:transform-center-x="-40"
       inkscape:transform-center-y="-1.1e-05"
       d="m 119.37109,438.10938 a 6,6 0 0 0 -6,6 6,6 0 0 0 6,6 6,6 0 0 0 6,-6 6,6 0 0 0 -6,-6 z M 90.6582,449.8418 a 6,6 0 0 0 -3.81445,1.74218 6,6 0 0 0 0,8.48438 6,6 0 0 0 8.48437,0 6,6 0 0 0 0,-8.48438 6,6 0 0 0 -4.66992,-1.74218 z m 56.56836,0 a 6,6 0 0 0 -3.81445,1.74218 6,6 0 0 0 0,8.48438 6,6 0 0 0 8.48437,0 6,6 0 0 0 0,-8.48438 6,6 0 0 0 -4.66992,-1.74218 z m -67.85742,28.26758 a 6,6 0 0 0 -6,6 6,6 0 0 0 6,6 6,6 0 0 0 6,-6 6,6 0 0 0 -6,-6 z m 80,0 a 6,6 0 0 0 -6,6 6,6 0 0 0 6,6 6,6 0 0 0 6,-6 6,6 0 0 0 -6,-6 z M 90.6582,506.41016 a 6,6 0 0 0 -3.81445,1.74218 6,6 0 0 0 0,8.48438 6,6 0 0 0 8.48437,0 6,6 0 0 0 0,-8.48438 6,6 0 0 0 -4.66992,-1.74218 z m 56.56836,0 a 6,6 0 0 0 -3.81445,1.74218 6,6 0 0 0 0,8.48438 6,6 0 0 0 8.48437,0 6,6 0 0 0 0,-8.48438 6,6 0 0 0 -4.66992,-1.74218 z m -27.85742,11.69922 a 6,6 0 0 0 -6,6 6,6 0 0 0 6,6 6,6 0 0 0 6,-6 6,6 0 0 0 -6,-6 z" />
    <path
       id="path22242"
       style="display:inline;fill:#ff00ff;stroke-width:2.5;stroke-linejoin:round"
       inkscape:transform-center-y="-38.00001"
       d="m 659.36914,252.10938 c -3.31371,0 -6,2.68629 -6,6 0,3.31371 2.68629,10 6,10 3.31371,-10e-6 6,-6.6863 6,-10 0,-3.31371 -2.68629,-6 -6,-6 z m -28.2832,11.71679 c -1.53554,0 -3.07061,0.58624 -4.24219,1.75781 -2.34315,2.34315 -2.34315,6.14124 0,8.48438 2.34315,2.34315 8.96935,5.17127 11.3125,2.82812 2.34315,-2.34315 -0.48497,-8.96935 -2.82813,-11.3125 -1.17156,-1.17157 -2.70665,-1.75781 -4.24218,-1.75781 z m 56.56836,0 c -1.53554,0 -3.07062,0.58624 -4.24219,1.75781 -2.34315,2.34315 -5.17128,8.96935 -2.82813,11.3125 2.34315,2.34315 8.96935,-0.48497 11.3125,-2.82812 2.34315,-2.34314 2.34315,-6.14123 0,-8.48438 -1.17157,-1.17157 -2.70665,-1.75781 -4.24218,-1.75781 z m -68.28516,28.28321 c -3.31371,0 -6,2.68629 -6,6 0,3.31371 2.68629,6 6,6 3.31371,0 10,-2.68629 10,-6 0,-3.31371 -6.68629,-6 -10,-6 z m 80,0 c -3.31371,0 -10,2.68629 -10,6 0,3.31371 6.68629,6 10,6 3.31371,0 6,-2.68629 6,-6 0,-3.31371 -2.68629,-6 -6,-6 z m -64.01562,26.33789 c -2.9291,0.0851 -6.82563,2.02093 -8.50977,3.70507 -2.34315,2.34314 -2.34315,6.14123 0,8.48438 2.34315,2.34315 6.14124,2.34315 8.48437,0 2.34316,-2.34315 5.17128,-8.96935 2.82813,-11.3125 -0.65901,-0.65901 -1.65657,-0.91025 -2.80273,-0.87695 z m 47.65625,0 c -0.98744,0.0277 -1.84,0.29116 -2.42579,0.87695 -2.34315,2.34315 0.48498,8.96935 2.82813,11.3125 2.34314,2.34315 6.14122,2.34315 8.48437,0 2.34315,-2.34315 2.34315,-6.14124 0,-8.48438 -1.75736,-1.75736 -5.9244,-3.78826 -8.88671,-3.70507 z m -23.64063,9.66211 c -3.31371,0 -6,6.68628 -6,10 0,3.31371 2.68629,6 6,6 3.31371,0 6,-2.68629 6,-6 0,-3.31372 -2.68629,-10 -6,-10 z" />
    <path
       id="path25002"
       style="color:#000000;display:inline;fill:#ff00ff;stroke-width:1;stroke-linecap:round;-inkscape-stroke:none"
       d="m 85.919922,269.76367 c -4.663137,0 -9.343553,1.03671 -13.285156,3.35742 -3.941602,2.3207 -7.172129,6.17478 -7.964844,11.16797 a 3.77953,3.77953 0 0 0 3.140625,4.32617 3.77953,3.77953 0 0 0 4.324219,-3.14062 c 0.407354,-2.56585 1.856258,-4.38103 4.333984,-5.83984 2.477726,-1.45882 5.955226,-2.3125 9.451172,-2.3125 3.495945,0 6.973447,0.85368 9.451172,2.3125 2.477726,1.45881 3.928585,3.27399 4.335937,5.83984 a 3.77953,3.77953 0 0 0 4.324219,3.14062 3.77953,3.77953 0 0 0 3.14063,-4.32617 c -0.79271,-4.99319 -4.02325,-8.84727 -7.964849,-11.16797 -3.941602,-2.32071 -8.623973,-3.35742 -13.287109,-3.35742 z m 66.896488,0 c -4.66314,0 -9.34355,1.03671 -13.28516,3.35742 -3.9416,2.3207 -7.17213,6.17478 -7.96484,11.16797 a 3.77953,3.77953 0 0 0 3.14062,4.32617 3.77953,3.77953 0 0 0 4.32422,-3.14062 c 0.40735,-2.56585 1.85625,-4.38103 4.33398,-5.83984 2.47772,-1.45882 5.95523,-2.3125 9.45118,-2.3125 3.49595,0 6.97345,0.85368 9.45117,2.3125 2.47773,1.45881 3.92859,3.27399 4.33594,5.83984 a 3.77953,3.77953 0 0 0 4.32421,3.14062 3.77953,3.77953 0 0 0 3.14063,-4.32617 c -0.79271,-4.99319 -4.02324,-8.84727 -7.96484,-11.16797 -3.9416,-2.32071 -8.62397,-3.35742 -13.28711,-3.35742 z m -56.324222,35.61719 v 8.07812 c 0,2.93621 0.28577,5.29948 0.859374,7.08985 0.573606,1.80468 1.506262,3.43751 2.796878,4.89844 1.86422,2.10548 4.48896,3.78839 7.86914,5.04882 3.38017,1.27473 7.148,1.91211 11.30664,1.91211 4.44544,0 8.28666,-0.60872 11.52344,-1.82617 3.23677,-1.21745 5.82727,-2.91472 7.77343,-5.0918 1.12673,-1.27474 2.00752,-2.83593 2.64258,-4.68359 0.65555,-1.83334 0.98438,-4.3112 0.98438,-7.43359 v -7.99219 z m 6.830082,5.0957 h 32.09765 v 3.63282 c 0,1.79687 -0.18807,3.33984 -0.56054,4.6289 -0.35385,1.28906 -0.99461,2.50652 -1.92579,3.65234 -1.28502,1.57554 -3.04642,2.76042 -5.28125,3.55469 -2.23482,0.79427 -4.98111,1.19141 -8.24023,1.19141 -3.2405,0 -5.94123,-0.36458 -8.10156,-1.09375 -2.16034,-0.71615 -3.90234,-1.79687 -5.22461,-3.24219 -1.06155,-1.15885 -1.78664,-2.43489 -2.17774,-3.82812 -0.39109,-1.38021 -0.58593,-3.0013 -0.58593,-4.86328 z" />
  </g>
  <g
     inkscape:groupmode="layer"
     id="layer5"
     inkscape:label="orange">
    <path
       id="path21630"
       style="display:inline;fill:#ff6600;stroke:none;stroke-width:2.5;stroke-linecap:butt;stroke-linejoin:round;stroke-miterlimit:4;stroke-dasharray:none"
       inkscape:transform-center-y="-26.000011"
       d="m 479.36914,260.10938 a 6,6 0 0 0 -6,6 6,6 0 0 0 6,6 6,6 0 0 0 6,-6 6,6 0 0 0 -6,-6 z m -18.8125,7.63085 a 6,6 0 0 0 -3.81445,1.74219 6,6 0 0 0 0,8.48633 6,6 0 0 0 8.48633,0 6,6 0 0 0 0,-8.48633 6,6 0 0 0 -4.67188,-1.74219 z m 36.76953,0 a 6,6 0 0 0 -3.81445,1.74219 6,6 0 0 0 0,8.48633 6,6 0 0 0 8.48633,0 6,6 0 0 0 0,-8.48633 6,6 0 0 0 -4.67188,-1.74219 z m -43.95703,18.36915 a 6,6 0 0 0 -6,6 6,6 0 0 0 6,6 6,6 0 0 0 6,-6 6,6 0 0 0 -6,-6 z m 52.00195,0 a 6,6 0 0 0 -6,6 6,6 0 0 0 6,6 6,6 0 0 0 6,-6 6,6 0 0 0 -6,-6 z m -44.81445,18.40039 a 6,6 0 0 0 -3.81445,1.74218 6,6 0 0 0 0,8.48633 6,6 0 0 0 8.48633,0 6,6 0 0 0 0,-8.48633 6,6 0 0 0 -4.67188,-1.74218 z m 36.76953,0 a 6,6 0 0 0 -3.81445,1.74218 6,6 0 0 0 0,8.48633 6,6 0 0 0 8.48633,0 6,6 0 0 0 0,-8.48633 6,6 0 0 0 -4.67188,-1.74218 z m -17.95703,7.59961 a 6,6 0 0 0 -6,6 6,6 0 0 0 6,6 6,6 0 0 0 6,-6 6,6 0 0 0 -6,-6 z" />
  </g>
</svg>
