<?xml version="1.0" encoding="UTF-8" standalone="no"?>
<!-- Created with Inkscape (http://www.inkscape.org/) -->

<svg
   width="210mm"
   height="297mm"
   viewBox="0 0 210 297"
   version="1.1"
   id="svg2271"
   inkscape:version="1.1.1 (3bf5ae0d25, 2021-09-20)"
   sodipodi:docname="lise-face-smile.svg"
   xmlns:inkscape="http://www.inkscape.org/namespaces/inkscape"
   xmlns:sodipodi="http://sodipodi.sourceforge.net/DTD/sodipodi-0.dtd"
   xmlns:xlink="http://www.w3.org/1999/xlink"
   xmlns="http://www.w3.org/2000/svg"
   xmlns:svg="http://www.w3.org/2000/svg">
  <sodipodi:namedview
     id="namedview2273"
     pagecolor="#ffffff"
     bordercolor="#666666"
     borderopacity="1.0"
     inkscape:pageshadow="2"
     inkscape:pageopacity="0.0"
     inkscape:pagecheckerboard="0"
     inkscape:document-units="mm"
     showgrid="false"
     inkscape:zoom="4.0920135"
     inkscape:cx="397.72596"
     inkscape:cy="589.80744"
     inkscape:window-width="1920"
     inkscape:window-height="1001"
     inkscape:window-x="-9"
     inkscape:window-y="1071"
     inkscape:window-maximized="1"
     inkscape:current-layer="layer1" />
  <defs
     id="defs2268" />
  <g
     inkscape:label="Layer 1"
     inkscape:groupmode="layer"
     id="layer1">
    <path
       id="rect984"
       style="fill:#b7fc68;fill-opacity:1;stroke-width:0.264583"
       d="m 96.70852,139.50002 c -1.108,0 -1.99988,0.89187 -1.99988,1.99987 v 0.99994 h -1.00045 c -0.554,0 -0.99994,0.44594 -0.99994,0.99994 0,0.554 0.44594,1.00046 0.99994,1.00046 h 1.00045 v 2.99981 c 0,1.10801 0.89188,1.99988 1.99988,1.99988 h 0.99994 c 1.108,0 1.99988,-0.89187 1.99988,-1.99988 v -4.00027 -1.99988 c 0,-1.108 -0.89188,-1.99987 -1.99988,-1.99987 z" />
    <use
       x="0"
       y="0"
       xlink:href="#rect984"
       id="use10933"
       transform="matrix(-1,0,0,1,210,-7.5175251e-7)"
       width="100%"
       height="100%" />
    <path
       style="color:#000000;fill:#b7fc68;stroke-linecap:round;-inkscape-stroke:none"
       d="m 100.20898,152.51172 a 1,1 0 0 0 -0.832027,1.14453 c 0.209737,1.32112 1.064537,2.34106 2.107427,2.95508 1.04288,0.61402 2.28183,0.88867 3.51562,0.88867 1.23379,0 2.47274,-0.27465 3.51563,-0.88867 1.04288,-0.61402 1.89768,-1.63396 2.10742,-2.95508 a 1,1 0 0 0 -0.83203,-1.14453 1,1 0 0 0 -1.14454,0.83203 c -0.10778,0.67888 -0.49091,1.15894 -1.14648,1.54492 -0.65557,0.38598 -1.57503,0.61133 -2.5,0.61133 -0.92497,0 -1.84444,-0.22535 -2.5,-0.61133 -0.65556,-0.38598 -1.03871,-0.86604 -1.14648,-1.54492 a 1,1 0 0 0 -1.14454,-0.83203 z"
       id="path10970" />
  </g>
</svg>
