<?xml version="1.0" encoding="UTF-8" standalone="no"?>
<!-- Created with Inkscape (http://www.inkscape.org/) -->

<svg
   width="210mm"
   height="297mm"
   viewBox="0 0 210 297"
   version="1.1"
   id="svg2163"
   inkscape:version="1.1.1 (3bf5ae0d25, 2021-09-20)"
   sodipodi:docname="lise-face-x.svg"
   xmlns:inkscape="http://www.inkscape.org/namespaces/inkscape"
   xmlns:sodipodi="http://sodipodi.sourceforge.net/DTD/sodipodi-0.dtd"
   xmlns="http://www.w3.org/2000/svg"
   xmlns:svg="http://www.w3.org/2000/svg">
  <sodipodi:namedview
     id="namedview2165"
     pagecolor="#ffffff"
     bordercolor="#666666"
     borderopacity="1.0"
     inkscape:pageshadow="2"
     inkscape:pageopacity="0.0"
     inkscape:pagecheckerboard="0"
     inkscape:document-units="mm"
     showgrid="false"
     inkscape:snap-bbox="true"
     inkscape:snap-nodes="false"
     inkscape:bbox-nodes="true"
     inkscape:snap-page="true"
     inkscape:zoom="0.25575084"
     inkscape:cx="60.605861"
     inkscape:cy="596.28347"
     inkscape:window-width="1920"
     inkscape:window-height="1001"
     inkscape:window-x="-9"
     inkscape:window-y="-9"
     inkscape:window-maximized="1"
     inkscape:current-layer="layer1" />
  <defs
     id="defs2160" />
  <g
     inkscape:label="Layer 1"
     inkscape:groupmode="layer"
     id="layer1">
    <g
       id="g2146"
       transform="matrix(0.26458333,0,0,0.26458333,12.696599,127.50002)">
      <path
         style="fill:none;stroke:#ff4a4a;stroke-width:18.8976;stroke-linecap:butt;stroke-linejoin:miter;stroke-miterlimit:4;stroke-dasharray:none;stroke-opacity:1"
         d="m 218.02228,39.282049 80.1759,80.175901"
         id="path16526" />
      <path
         style="fill:none;stroke:#ff4a4a;stroke-width:18.8976;stroke-linecap:butt;stroke-linejoin:miter;stroke-miterlimit:4;stroke-dasharray:none;stroke-opacity:1"
         d="m 298.19818,39.282049 -80.1759,80.175901"
         id="path36058" />
    </g>
    <path
       id="path1417"
       style="color:#000000;fill:#ff4a4a;stroke-width:4.99999;stroke-linecap:round;stroke-linejoin:round;-inkscape-stroke:none"
       d="m 128.10558,136.82038 a 2.5002449,2.5002449 0 0 0 -0.68058,0.1447 2.5002449,2.5002449 0 0 0 -1.31,1.09915 l -10.60659,18.37149 a 2.5002449,2.5002449 0 0 0 2.16473,3.74965 h 21.21317 a 2.5002449,2.5002449 0 0 0 2.16524,-3.74965 l -10.60658,-18.37149 a 2.5002449,2.5002449 0 0 0 -2.33939,-1.24385 z m 0.17414,3.76153 c 0.56778,0 1.13197,0.27194 1.49914,0.70487 0.41539,0.48097 0.56482,1.11712 0.56482,1.81281 0,0.24204 -0.0223,0.52187 -0.0625,0.86144 l -5.3e-4,0.006 -1.03404,9.39943 -0.0739,0.66817 h -1.78645 l -1.09558,-10.0955 c -0.0477,-0.42183 -0.0744,-0.71044 -0.0744,-0.94465 0,-0.64248 0.16853,-1.25324 0.56741,-1.71255 0.37138,-0.42765 0.92959,-0.70022 1.49603,-0.70022 z m -0.0114,13.88287 c 0.52823,0 1.05661,0.21592 1.43144,0.58808 0.38261,0.37293 0.60927,0.90697 0.60927,1.44126 0,0.53591 -0.22458,1.06948 -0.60358,1.44849 -0.37511,0.3751 -0.90665,0.59221 -1.43713,0.59221 -0.52659,0 -1.05074,-0.21729 -1.42885,-0.58395 l -0.008,-0.008 -0.008,-0.008 c -0.36929,-0.38082 -0.58343,-0.91025 -0.58343,-1.44074 0,-0.53048 0.21659,-1.06253 0.5917,-1.43763 l 0.004,-0.004 0.004,-0.004 c 0.37811,-0.36665 0.90226,-0.58395 1.42885,-0.58395 z" />
  </g>
</svg>
