<?xml version="1.0" encoding="UTF-8"?>
<!-- 2023-08-22 20:43:44 Generated by QCAD 3.27.1 SVG Exporter -->
<svg width="68.238mm" height="58.4176mm" viewBox="-39.988 -30.125 68.238 58.4176" version="1.1" xmlns="http://www.w3.org/2000/svg" style="stroke-linecap:round;stroke-linejoin:round;fill:none">
    <g transform="scale(1,-1)">
        <!-- Polyline -->
        <path d="M11,21 L-11,21 A10,10 0 0 1 -21,11 L-21,-11 A10,10 0 0 1 -11,-21 L11,-21 A10,10 0 0 1 21,-11 L21,11 A10,10 0 0 1 11,21" style="stroke:#000000;stroke-width:0.25;"/>
        <!-- Rotated Dimension -->
        <g>
            <g>
                <path d="M-0.6944,27.625 L-0.6944,28.7361 M-0.2778,28.1806 L-1.6667,28.1806 L-1.1111,30.125 M1.6667,27.625 L0.5556,27.625 L1.6292,29.4714 C1.636,29.4832 1.6473,29.508 1.6517,29.5209 C1.6562,29.5338 1.6624,29.5603 1.6642,29.5738 C1.6661,29.5873 1.667,29.6146 1.6662,29.6282 C1.6653,29.6418 1.6609,29.6687 1.6575,29.6819 C1.6557,29.6886 1.6515,29.7018 1.649,29.7083 C1.6422,29.7347 1.6234,29.7859 1.6116,29.8105 C1.5998,29.8351 1.5714,29.8817 1.5549,29.9035 C1.5385,29.9253 1.5016,29.9655 1.4812,29.9837 C1.4609,30.0019 1.4168,30.0341 1.3933,30.0479 C1.3698,30.0618 1.3203,30.0848 1.2945,30.0938 C1.2687,30.1028 1.2157,30.1157 1.1887,30.1195 C1.1616,30.1233 1.1071,30.1256 1.0798,30.1241 C1.0526,30.1225 0.9987,30.1141 0.9722,30.1073 C0.9458,30.1005 0.8945,30.0817 0.87,30.0699 C0.8454,30.058 0.7987,30.0296 0.7769,30.0132 C0.7551,29.9968 0.715,29.9599 0.6968,29.9395 C0.6786,29.9191 0.6464,29.8751 0.6325,29.8516 C0.6187,29.828 0.5957,29.7785 0.5867,29.7528 C0.5829,29.7419 0.5761,29.7197 0.5733,29.7086" style="stroke:#00ff00;stroke-width:0.25;"/>
            </g>
            <path d="M-21,27 L-18.5,27.4163 L-18.5,26.5837 Z" style="stroke:#00ff00;stroke-width:0.25;fill:#00ff00;fill-rule:evenodd;"/>
            <path d="M21,27 L18.5,26.5837 L18.5,27.4163 Z" style="stroke:#00ff00;stroke-width:0.25;fill:#00ff00;fill-rule:evenodd;"/>
        </g>
        <path d="M-21,27 L21,27 M-21,11.625 L-21,28.25 M21,11.625 L21,28.25 " style="stroke:#00ff00;stroke-width:0.25;"/>
        <!-- Rotated Dimension -->
        <g>
            <g>
                <path d="M26.375,-0.6944 L25.2639,-0.6944 M25.8194,-0.2778 L25.8194,-1.6667 L23.875,-1.1111 M26.375,1.6667 L26.375,0.5556 L24.5286,1.6292 C24.5168,1.636 24.492,1.6473 24.4791,1.6517 C24.4662,1.6562 24.4397,1.6624 24.4262,1.6642 C24.4127,1.6661 24.3854,1.667 24.3718,1.6662 C24.3582,1.6653 24.3313,1.6609 24.3181,1.6575 C24.3114,1.6557 24.2982,1.6515 24.2918,1.649 C24.2653,1.6422 24.2141,1.6234 24.1895,1.6116 C24.1649,1.5998 24.1183,1.5714 24.0965,1.5549 C24.0747,1.5385 24.0345,1.5016 24.0163,1.4812 C23.9981,1.4609 23.9659,1.4168 23.9521,1.3933 C23.9382,1.3698 23.9152,1.3203 23.9062,1.2945 C23.8972,1.2687 23.8843,1.2157 23.8805,1.1887 C23.8767,1.1616 23.8744,1.1071 23.8759,1.0798 C23.8775,1.0526 23.8859,0.9987 23.8927,0.9722 C23.8995,0.9458 23.9183,0.8945 23.9301,0.87 C23.942,0.8454 23.9704,0.7987 23.9868,0.7769 C24.0032,0.7551 24.0401,0.715 24.0605,0.6968 C24.0809,0.6786 24.1249,0.6464 24.1484,0.6325 C24.172,0.6187 24.2215,0.5957 24.2472,0.5867 C24.2581,0.5829 24.2803,0.5761 24.2914,0.5733" style="stroke:#00ff00;stroke-width:0.25;"/>
            </g>
            <path d="M27,21 L27.4163,18.5 L26.5837,18.5 Z" style="stroke:#00ff00;stroke-width:0.25;fill:#00ff00;fill-rule:evenodd;"/>
            <path d="M27,-21 L26.5837,-18.5 L27.4163,-18.5 Z" style="stroke:#00ff00;stroke-width:0.25;fill:#00ff00;fill-rule:evenodd;"/>
        </g>
        <path d="M27,21 L27,-21 M11.625,21 L28.25,21 M11.625,-21 L28.25,-21 " style="stroke:#00ff00;stroke-width:0.25;"/>
        <!-- Leader -->
        <path d="M-18.0711,-18.0711 L-19.5445,-20.1332 L-20.1332,-19.5445 Z" style="stroke:#00ff00;stroke-width:0.25;fill:#00ff00;fill-rule:evenodd;"/>
        <path d="M-18.0711,-18.0711 L-27,-27 L-33,-27" style="stroke:#00ff00;stroke-width:0.25;"/>
        <!-- Text: R10 -->
        <g>
            <path d="M-39.988,-28.25 L-39.988,-25.75 L-38.8796,-25.75 C-38.6568,-25.75 -38.4874,-25.7725 -38.3714,-25.8174 C-38.2554,-25.8623 -38.1628,-25.9416 -38.0934,-26.0553 C-38.0241,-26.1689 -37.9894,-26.2946 -37.9894,-26.4321 C-37.9894,-26.6095 -38.0468,-26.759 -38.1617,-26.8806 C-38.2765,-27.0023 -38.4538,-27.0796 -38.6937,-27.1126 C-38.6062,-27.1546 -38.5397,-27.1961 -38.4942,-27.237 C-38.3976,-27.3257 -38.306,-27.4366 -38.2196,-27.5696 L-37.7848,-28.25 L-38.2009,-28.25 L-38.5317,-27.7299 C-38.6283,-27.5798 -38.7079,-27.465 -38.7704,-27.3854 C-38.833,-27.3058 -38.889,-27.2501 -38.9384,-27.2183 C-38.9879,-27.1864 -39.0382,-27.1643 -39.0893,-27.1518 C-39.1269,-27.1438 -39.1883,-27.1398 -39.2735,-27.1398 L-39.6572,-27.1398 L-39.6572,-28.25 Z M-39.6572,-26.8533 L-38.9461,-26.8533 C-38.7949,-26.8533 -38.6767,-26.8377 -38.5914,-26.8064 C-38.5061,-26.7752 -38.4413,-26.7252 -38.397,-26.6564 C-38.3526,-26.5876 -38.3305,-26.5128 -38.3305,-26.4321 C-38.3305,-26.3139 -38.3734,-26.2167 -38.4592,-26.1405 C-38.5451,-26.0643 -38.6806,-26.0263 -38.8659,-26.0263 L-39.6572,-26.0263 Z M-36.431,-28.25 L-36.7379,-28.25 L-36.7379,-26.294 C-36.8118,-26.3645 -36.9087,-26.435 -37.0287,-26.5055 C-37.1486,-26.5759 -37.2563,-26.6288 -37.3518,-26.6641 L-37.3518,-26.3673 C-37.1802,-26.2866 -37.0301,-26.1888 -36.9016,-26.074 C-36.7732,-25.9592 -36.6822,-25.8478 -36.6288,-25.7398 L-36.431,-25.7398 Z M-35.6422,-27.0171 C-35.6422,-26.7215 -35.6118,-26.4836 -35.551,-26.3034 C-35.4902,-26.1232 -35.3998,-25.9842 -35.2799,-25.8864 C-35.1599,-25.7887 -35.009,-25.7398 -34.8271,-25.7398 C-34.6929,-25.7398 -34.5753,-25.7668 -34.4741,-25.8208 C-34.3729,-25.8748 -34.2894,-25.9526 -34.2234,-26.0544 C-34.1575,-26.1562 -34.1057,-26.2801 -34.0682,-26.4262 C-34.0307,-26.5722 -34.012,-26.7692 -34.012,-27.0171 C-34.012,-27.3104 -34.0421,-27.5471 -34.1023,-27.7273 C-34.1626,-27.9075 -34.2527,-28.0468 -34.3726,-28.1451 C-34.4926,-28.2435 -34.6441,-28.2926 -34.8271,-28.2926 C-35.0681,-28.2926 -35.2574,-28.2062 -35.395,-28.0334 C-35.5598,-27.8254 -35.6422,-27.4866 -35.6422,-27.0171 M-35.3268,-27.0171 C-35.3268,-27.4275 -35.2787,-27.7006 -35.1827,-27.8365 C-35.0866,-27.9723 -34.9681,-28.0402 -34.8271,-28.0402 C-34.6861,-28.0402 -34.5676,-27.972 -34.4715,-27.8356 C-34.3755,-27.6992 -34.3274,-27.4263 -34.3274,-27.0171 C-34.3274,-26.6055 -34.3755,-26.3321 -34.4715,-26.1968 C-34.5676,-26.0615 -34.6873,-25.9939 -34.8305,-25.9939 C-34.9715,-25.9939 -35.084,-26.0535 -35.1682,-26.1729 C-35.2739,-26.3253 -35.3268,-26.6066 -35.3268,-27.0171" style="fill:#00ff00;fill-rule:evenodd;"/>
        </g>
        <!-- Text: Background -->
        <g>
            <path d="M-9.0823,-1.25 L-9.0823,1.25 L-8.1444,1.25 C-7.9534,1.25 -7.8002,1.2247 -7.6848,1.1741 C-7.5694,1.1235 -7.4791,1.0456 -7.4137,0.9405 C-7.3483,0.8353 -7.3156,0.7253 -7.3156,0.6105 C-7.3156,0.5036 -7.3446,0.403 -7.4026,0.3087 C-7.4606,0.2143 -7.5481,0.1381 -7.6652,0.0802 C-7.514,0.0358 -7.3978,-0.0398 -7.3165,-0.1467 C-7.2352,-0.2535 -7.1946,-0.3797 -7.1946,-0.5252 C-7.1946,-0.6423 -7.2193,-0.7512 -7.2687,-0.8518 C-7.3182,-0.9524 -7.3793,-1.03 -7.4521,-1.0846 C-7.5248,-1.1392 -7.6161,-1.1804 -7.7258,-1.2082 C-7.8355,-1.2361 -7.9699,-1.25 -8.1291,-1.25 Z M-8.7515,0.1995 L-8.2109,0.1995 C-8.0643,0.1995 -7.9591,0.2092 -7.8954,0.2285 C-7.8113,0.2535 -7.7479,0.295 -7.7053,0.353 C-7.6627,0.411 -7.6414,0.4837 -7.6414,0.5713 C-7.6414,0.6543 -7.6612,0.7273 -7.701,0.7904 C-7.7408,0.8535 -7.7977,0.8967 -7.8716,0.92 C-7.9455,0.9433 -8.0722,0.955 -8.2519,0.955 L-8.7515,0.955 Z M-8.7515,-0.955 L-8.1291,-0.955 C-8.0222,-0.955 -7.9472,-0.951 -7.904,-0.943 C-7.8278,-0.9294 -7.7641,-0.9067 -7.713,-0.8748 C-7.6618,-0.843 -7.6198,-0.7967 -7.5868,-0.7358 C-7.5538,-0.675 -7.5373,-0.6048 -7.5373,-0.5252 C-7.5373,-0.432 -7.5612,-0.351 -7.609,-0.2822 C-7.6567,-0.2134 -7.7229,-0.1651 -7.8076,-0.1373 C-7.8923,-0.1094 -8.0142,-0.0955 -8.1734,-0.0955 L-8.7515,-0.0955 Z M-5.6048,-1.0266 C-5.7185,-1.1232 -5.8279,-1.1915 -5.9331,-1.2312 C-6.0382,-1.271 -6.1511,-1.2909 -6.2716,-1.2909 C-6.4705,-1.2909 -6.6234,-1.2423 -6.7303,-1.1451 C-6.8372,-1.0479 -6.8906,-0.9237 -6.8906,-0.7725 C-6.8906,-0.6838 -6.8704,-0.6028 -6.8301,-0.5295 C-6.7897,-0.4562 -6.7368,-0.3973 -6.6715,-0.353 C-6.6061,-0.3087 -6.5325,-0.2751 -6.4506,-0.2524 C-6.3904,-0.2365 -6.2994,-0.2211 -6.1778,-0.2063 C-5.9299,-0.1768 -5.7475,-0.1415 -5.6304,-0.1006 C-5.6292,-0.0585 -5.6287,-0.0318 -5.6287,-0.0205 C-5.6287,0.1046 -5.6576,0.1927 -5.7156,0.2439 C-5.7941,0.3132 -5.9106,0.3479 -6.0652,0.3479 C-6.2096,0.3479 -6.3162,0.3226 -6.385,0.272 C-6.4537,0.2214 -6.5046,0.1319 -6.5376,0.0034 L-6.8377,0.0443 C-6.8104,0.1728 -6.7655,0.2765 -6.703,0.3556 C-6.6405,0.4346 -6.5501,0.4954 -6.4319,0.538 C-6.3136,0.5807 -6.1766,0.602 -6.0209,0.602 C-5.8663,0.602 -5.7406,0.5838 -5.644,0.5474 C-5.5474,0.511 -5.4763,0.4653 -5.4308,0.4101 C-5.3854,0.355 -5.3535,0.2854 -5.3353,0.2012 C-5.3251,0.1489 -5.32,0.0546 -5.32,-0.0819 L-5.32,-0.4911 C-5.32,-0.7765 -5.3135,-0.957 -5.3004,-1.0326 C-5.2873,-1.1082 -5.2614,-1.1807 -5.2228,-1.25 L-5.5434,-1.25 C-5.5752,-1.1863 -5.5957,-1.1119 -5.6048,-1.0266 M-5.6304,-0.3411 C-5.7418,-0.3865 -5.9089,-0.4252 -6.1317,-0.457 C-6.2579,-0.4752 -6.3472,-0.4957 -6.3995,-0.5184 C-6.4518,-0.5412 -6.4921,-0.5744 -6.5205,-0.6182 C-6.549,-0.6619 -6.5632,-0.7106 -6.5632,-0.764 C-6.5632,-0.8458 -6.5322,-0.9141 -6.4702,-0.9686 C-6.4083,-1.0232 -6.3176,-1.0505 -6.1982,-1.0505 C-6.08,-1.0505 -5.9748,-1.0246 -5.8827,-0.9729 C-5.7907,-0.9212 -5.723,-0.8504 -5.6798,-0.7606 C-5.6468,-0.6912 -5.6304,-0.5889 -5.6304,-0.4536 Z M-3.6599,-0.5866 L-3.358,-0.6259 C-3.391,-0.8339 -3.4754,-0.9968 -3.6113,-1.1144 C-3.7471,-1.2321 -3.914,-1.2909 -4.1118,-1.2909 C-4.3596,-1.2909 -4.5588,-1.2099 -4.7095,-1.0479 C-4.8601,-0.8859 -4.9354,-0.6537 -4.9354,-0.3513 C-4.9354,-0.1558 -4.903,0.0153 -4.8382,0.162 C-4.7734,0.3087 -4.6748,0.4187 -4.5424,0.492 C-4.4099,0.5653 -4.2658,0.602 -4.1101,0.602 C-3.9134,0.602 -3.7525,0.5522 -3.6275,0.4528 C-3.5024,0.3533 -3.4222,0.212 -3.387,0.029 L-3.6854,-0.0171 C-3.7139,0.1046 -3.7642,0.1961 -3.8364,0.2575 C-3.9086,0.3189 -3.9958,0.3496 -4.0981,0.3496 C-4.2527,0.3496 -4.3784,0.2942 -4.475,0.1833 C-4.5716,0.0725 -4.62,-0.1029 -4.62,-0.3428 C-4.62,-0.5861 -4.5733,-0.7628 -4.4801,-0.8731 C-4.3869,-0.9834 -4.2652,-1.0385 -4.1152,-1.0385 C-3.9947,-1.0385 -3.8941,-1.0016 -3.8133,-0.9277 C-3.7326,-0.8538 -3.6815,-0.7401 -3.6599,-0.5866 M-3.0832,-1.25 L-3.0832,1.25 L-2.7763,1.25 L-2.7763,-0.1756 L-2.0498,0.5611 L-1.6525,0.5611 L-2.3448,-0.1108 L-1.5826,-1.25 L-1.9611,-1.25 L-2.5597,-0.324 L-2.7763,-0.5321 L-2.7763,-1.25 Z M-1.3845,-1.4001 L-1.0861,-1.4444 C-1.0736,-1.5365 -1.0389,-1.6036 -0.9821,-1.6456 C-0.9059,-1.7025 -0.8019,-1.7309 -0.67,-1.7309 C-0.5279,-1.7309 -0.4182,-1.7025 -0.3409,-1.6456 C-0.2635,-1.5888 -0.2113,-1.5092 -0.184,-1.4069 C-0.168,-1.3444 -0.1607,-1.2131 -0.1618,-1.013 C-0.2959,-1.171 -0.4631,-1.25 -0.6632,-1.25 C-0.9121,-1.25 -1.1048,-1.1602 -1.2413,-0.9806 C-1.3777,-0.8009 -1.4459,-0.5855 -1.4459,-0.3342 C-1.4459,-0.1614 -1.4146,-0.002 -1.3521,0.1441 C-1.2896,0.2902 -1.1989,0.403 -1.0801,0.4826 C-0.9613,0.5622 -0.8218,0.602 -0.6615,0.602 C-0.4477,0.602 -0.2715,0.5156 -0.1328,0.3428 L-0.1328,0.5611 L0.1503,0.5611 L0.1503,-1.0044 C0.1503,-1.2864 0.1216,-1.4862 0.0642,-1.6039 C0.0067,-1.7215 -0.0842,-1.8145 -0.2087,-1.8827 C-0.3332,-1.9509 -0.4864,-1.985 -0.6683,-1.985 C-0.8843,-1.985 -1.0588,-1.9364 -1.1918,-1.8392 C-1.3248,-1.742 -1.3891,-1.5956 -1.3845,-1.4001 M-1.1304,-0.3121 C-1.1304,-0.5497 -1.0832,-0.7231 -0.9889,-0.8322 C-0.8945,-0.9413 -0.7763,-0.9959 -0.6342,-0.9959 C-0.4932,-0.9959 -0.375,-0.9416 -0.2795,-0.833 C-0.184,-0.7245 -0.1362,-0.5542 -0.1362,-0.3223 C-0.1362,-0.1006 -0.1854,0.0665 -0.2837,0.1791 C-0.3821,0.2916 -0.5006,0.3479 -0.6393,0.3479 C-0.7757,0.3479 -0.8917,0.2925 -0.9872,0.1816 C-1.0827,0.0708 -1.1304,-0.0938 -1.1304,-0.3121 M0.6133,-1.25 L0.6133,0.5611 L0.8895,0.5611 L0.8895,0.2865 C0.96,0.415 1.0251,0.4997 1.0848,0.5406 C1.1445,0.5815 1.2101,0.602 1.2818,0.602 C1.3852,0.602 1.4904,0.569 1.5972,0.5031 L1.4915,0.2183 C1.4165,0.2626 1.3414,0.2848 1.2664,0.2848 C1.1993,0.2848 1.1391,0.2646 1.0857,0.2242 C1.0322,0.1839 0.9941,0.1279 0.9714,0.0563 C0.9373,-0.0529 0.9202,-0.1722 0.9202,-0.3018 L0.9202,-1.25 Z M1.6736,-0.3445 C1.6736,-0.0091 1.7668,0.2393 1.9532,0.4008 C2.109,0.5349 2.2989,0.602 2.5228,0.602 C2.7718,0.602 2.9753,0.5204 3.1333,0.3573 C3.2913,0.1941 3.3704,-0.0313 3.3704,-0.3189 C3.3704,-0.552 3.3354,-0.7353 3.2655,-0.8689 C3.1956,-1.0024 3.0938,-1.1062 2.9602,-1.1801 C2.8266,-1.254 2.6808,-1.2909 2.5228,-1.2909 C2.2693,-1.2909 2.0644,-1.2096 1.908,-1.0471 C1.7517,-0.8845 1.6736,-0.6503 1.6736,-0.3445 M1.9891,-0.3445 C1.9891,-0.5764 2.0396,-0.7501 2.1408,-0.8655 C2.242,-0.9808 2.3693,-1.0385 2.5228,-1.0385 C2.6752,-1.0385 2.8019,-0.9806 2.9031,-0.8646 C3.0043,-0.7486 3.0549,-0.5719 3.0549,-0.3342 C3.0549,-0.1103 3.004,0.0594 2.9023,0.1748 C2.8005,0.2902 2.674,0.3479 2.5228,0.3479 C2.3693,0.3479 2.242,0.2905 2.1408,0.1756 C2.0396,0.0608 1.9891,-0.1126 1.9891,-0.3445 M4.9197,-1.25 L4.9197,-0.984 C4.7787,-1.1886 4.5871,-1.2909 4.345,-1.2909 C4.2381,-1.2909 4.1383,-1.2705 4.0457,-1.2295 C3.953,-1.1886 3.8842,-1.1372 3.8393,-1.0752 C3.7944,-1.0132 3.7629,-0.9374 3.7447,-0.8475 C3.7322,-0.7873 3.7259,-0.6918 3.7259,-0.5611 L3.7259,0.5611 L4.0329,0.5611 L4.0329,-0.4434 C4.0329,-0.6037 4.0391,-0.7117 4.0516,-0.7674 C4.071,-0.8481 4.1119,-0.9115 4.1744,-0.9575 C4.237,-1.0036 4.3143,-1.0266 4.4063,-1.0266 C4.4984,-1.0266 4.5848,-1.003 4.6656,-0.9558 C4.7463,-0.9087 4.8034,-0.8444 4.8369,-0.7631 C4.8705,-0.6818 4.8872,-0.5639 4.8872,-0.4093 L4.8872,0.5611 L5.1942,0.5611 L5.1942,-1.25 Z M5.6777,-1.25 L5.6777,0.5611 L5.9539,0.5611 L5.9539,0.3035 C6.0869,0.5025 6.2791,0.602 6.5303,0.602 C6.6395,0.602 6.7398,0.5824 6.8313,0.5431 C6.9228,0.5039 6.9913,0.4525 7.0368,0.3888 C7.0823,0.3251 7.1141,0.2495 7.1323,0.162 C7.1437,0.1052 7.1494,0.0057 7.1494,-0.1364 L7.1494,-1.25 L6.8424,-1.25 L6.8424,-0.1484 C6.8424,-0.0233 6.8305,0.0702 6.8066,0.1322 C6.7827,0.1941 6.7404,0.2436 6.6795,0.2805 C6.6187,0.3175 6.5474,0.3359 6.4655,0.3359 C6.3348,0.3359 6.222,0.2945 6.127,0.2115 C6.0321,0.1285 5.9846,-0.029 5.9846,-0.2609 L5.9846,-1.25 Z M8.7976,-1.25 L8.7976,-1.0215 C8.6827,-1.2011 8.5139,-1.2909 8.2911,-1.2909 C8.1467,-1.2909 8.014,-1.2511 7.8929,-1.1716 C7.7718,-1.092 7.678,-0.9808 7.6115,-0.8382 C7.545,-0.6955 7.5117,-0.5315 7.5117,-0.3462 C7.5117,-0.1654 7.5419,-0.0014 7.6021,0.1458 C7.6624,0.293 7.7528,0.4059 7.8733,0.4843 C7.9938,0.5628 8.1285,0.602 8.2774,0.602 C8.3866,0.602 8.4838,0.579 8.569,0.5329 C8.6543,0.4869 8.7237,0.4269 8.7771,0.353 L8.7771,1.25 L9.0823,1.25 L9.0823,-1.25 Z M7.8272,-0.3462 C7.8272,-0.5781 7.8761,-0.7515 7.9739,-0.8663 C8.0717,-0.9811 8.1871,-1.0385 8.3201,-1.0385 C8.4542,-1.0385 8.5682,-0.9837 8.662,-0.874 C8.7558,-0.7643 8.8027,-0.5969 8.8027,-0.3718 C8.8027,-0.1239 8.7549,0.058 8.6594,0.1739 C8.5639,0.2899 8.4463,0.3479 8.3064,0.3479 C8.17,0.3479 8.056,0.2922 7.9645,0.1808 C7.873,0.0693 7.8272,-0.1063 7.8272,-0.3462" style="fill:#000000;fill-rule:evenodd;"/>
        </g>
        <!-- Polyline -->
        <path d="M-10,2 L10,2 L10,-2 L-10,-2 Z" style="stroke:#000000;stroke-width:0.25;"/>
        <!-- Hatch -->
        <g>
            <path d="M16.715,-19.206 L19.206,-16.715" style="stroke:#000000;stroke-width:0.25;"/>
            <path d="M10.4309,-21 L21,-10.4309" style="stroke:#000000;stroke-width:0.25;"/>
            <path d="M5.9408,-21 L21,-5.9408" style="stroke:#000000;stroke-width:0.25;"/>
            <path d="M1.4506,-21 L21,-1.4506" style="stroke:#000000;stroke-width:0.25;"/>
            <path d="M-3.0395,-21 L21,3.0395" style="stroke:#000000;stroke-width:0.25;"/>
            <path d="M-7.5296,-21 L21,7.5296" style="stroke:#000000;stroke-width:0.25;"/>
            <path d="M-11.9724,-20.9526 L6.9803,-2" style="stroke:#000000;stroke-width:0.25;"/>
            <path d="M10,1.0197 L20.9526,11.9724" style="stroke:#000000;stroke-width:0.25;"/>
            <path d="M-15.4601,-19.9503 L2.4901,-2" style="stroke:#000000;stroke-width:0.25;"/>
            <path d="M6.4901,2 L19.9503,15.4601" style="stroke:#000000;stroke-width:0.25;"/>
            <path d="M-18.0711,-18.0711 L-2,-2" style="stroke:#000000;stroke-width:0.25;"/>
            <path d="M2,2 L18.0711,18.0711" style="stroke:#000000;stroke-width:0.25;"/>
            <path d="M-19.9503,-15.4601 L-6.4901,-2" style="stroke:#000000;stroke-width:0.25;"/>
            <path d="M-2.4901,2 L15.4601,19.9503" style="stroke:#000000;stroke-width:0.25;"/>
            <path d="M-20.9526,-11.9724 L-10,-1.0197" style="stroke:#000000;stroke-width:0.25;"/>
            <path d="M-6.9803,2 L11.9724,20.9526" style="stroke:#000000;stroke-width:0.25;"/>
            <path d="M-21,-7.5296 L7.5296,21" style="stroke:#000000;stroke-width:0.25;"/>
            <path d="M-21,-3.0395 L3.0395,21" style="stroke:#000000;stroke-width:0.25;"/>
            <path d="M-21,1.4506 L-1.4506,21" style="stroke:#000000;stroke-width:0.25;"/>
            <path d="M-21,5.9408 L-5.9408,21" style="stroke:#000000;stroke-width:0.25;"/>
            <path d="M-21,10.4309 L-10.4309,21" style="stroke:#000000;stroke-width:0.25;"/>
            <path d="M-19.206,16.715 L-16.715,19.206" style="stroke:#000000;stroke-width:0.25;"/>
        </g>
    </g>
</svg>
